<?xml version="1.0" encoding="UTF-8"?>
<!-- Created with Inkscape (http://www.inkscape.org/) -->
<svg version="1.1" viewBox="0 0 83.892 77.9" xmlns="http://www.w3.org/2000/svg">
  <g transform="translate(-52.243 -111.33)">
    <g transform="matrix(1.9974 0 0 1.9974 30.271 85.362)" stroke-width=".13246">
      <g stroke-width=".13246">
        <g stroke-width=".017546">
          <path
            d="m52 17h-40c-0.6 0-1 0.4-1 1v30c0 0.6 0.4 1 1 1h14.3c1 0 1.9 0.4 2.4 1.2 0.7 1.1 1.9 1.8 3.3 1.8s2.6-0.7 3.3-1.8c0.5-0.8 1.5-1.2 2.4-1.2h14.3c0.6 0 1-0.4 1-1v-30c0-0.6-0.4-1-1-1z"
            fill="#424c72" />
          <path d="m14 28v18h16c1.1 0 2 0.9 2 2 0-1.1 0.9-2 2-2h16v-18z" fill="#e4e7ef" />
          <path d="m35 13c-1.7 0-3 1.3-3 3 0-1.7-1.3-3-3-3h-15v31h16c1.1 0 2 0.9 2 2 0-1.1 0.9-2 2-2h16v-31z"
            fill="#fff" />
          <rect x="18" y="16" width="4" height="7" fill="#57d1f7" />
          <g fill="#e4e7ef">
            <path d="m29 26.5h-11c-0.3 0-0.5-0.2-0.5-0.5s0.2-0.5 0.5-0.5h11c0.3 0 0.5 0.2 0.5 0.5s-0.2 0.5-0.5 0.5z" />
            <path
              d="m29 23.5h-4.4c-0.3 0-0.5-0.2-0.5-0.5s0.2-0.5 0.5-0.5h4.4c0.3 0 0.5 0.2 0.5 0.5s-0.2 0.5-0.5 0.5z" />
            <path
              d="m29 20.5h-4.4c-0.3 0-0.5-0.2-0.5-0.5s0.2-0.5 0.5-0.5h4.4c0.3 0 0.5 0.2 0.5 0.5s-0.2 0.5-0.5 0.5z" />
            <path
              d="m29 17.5h-4.4c-0.3 0-0.5-0.2-0.5-0.5s0.2-0.5 0.5-0.5h4.4c0.3 0 0.5 0.2 0.5 0.5s-0.2 0.5-0.5 0.5z" />
            <path d="m29 29.5h-11c-0.3 0-0.5-0.2-0.5-0.5s0.2-0.5 0.5-0.5h11c0.3 0 0.5 0.2 0.5 0.5s-0.2 0.5-0.5 0.5z" />
            <path d="m29 32.5h-11c-0.3 0-0.5-0.2-0.5-0.5s0.2-0.5 0.5-0.5h11c0.3 0 0.5 0.2 0.5 0.5s-0.2 0.5-0.5 0.5z" />
            <path d="m29 35.5h-11c-0.3 0-0.5-0.2-0.5-0.5s0.2-0.5 0.5-0.5h11c0.3 0 0.5 0.2 0.5 0.5s-0.2 0.5-0.5 0.5z" />
            <path d="m29 38.5h-11c-0.3 0-0.5-0.2-0.5-0.5s0.2-0.5 0.5-0.5h11c0.3 0 0.5 0.2 0.5 0.5s-0.2 0.5-0.5 0.5z" />
            <path d="m29 41.5h-11c-0.3 0-0.5-0.2-0.5-0.5s0.2-0.5 0.5-0.5h11c0.3 0 0.5 0.2 0.5 0.5s-0.2 0.5-0.5 0.5z" />
            <path d="m46 26.5h-11c-0.3 0-0.5-0.2-0.5-0.5s0.2-0.5 0.5-0.5h11c0.3 0 0.5 0.2 0.5 0.5s-0.2 0.5-0.5 0.5z" />
            <path d="m46 29.5h-11c-0.3 0-0.5-0.2-0.5-0.5s0.2-0.5 0.5-0.5h11c0.3 0 0.5 0.2 0.5 0.5s-0.2 0.5-0.5 0.5z" />
            <path d="m46 20.5h-11c-0.3 0-0.5-0.2-0.5-0.5s0.2-0.5 0.5-0.5h11c0.3 0 0.5 0.2 0.5 0.5s-0.2 0.5-0.5 0.5z" />
            <path d="m46 17.5h-11c-0.3 0-0.5-0.2-0.5-0.5s0.2-0.5 0.5-0.5h11c0.3 0 0.5 0.2 0.5 0.5s-0.2 0.5-0.5 0.5z" />
            <path d="m46 23.5h-11c-0.3 0-0.5-0.2-0.5-0.5s0.2-0.5 0.5-0.5h11c0.3 0 0.5 0.2 0.5 0.5s-0.2 0.5-0.5 0.5z" />
            <path d="m46 32.5h-11c-0.3 0-0.5-0.2-0.5-0.5s0.2-0.5 0.5-0.5h11c0.3 0 0.5 0.2 0.5 0.5s-0.2 0.5-0.5 0.5z" />
            <path d="m46 35.5h-11c-0.3 0-0.5-0.2-0.5-0.5s0.2-0.5 0.5-0.5h11c0.3 0 0.5 0.2 0.5 0.5s-0.2 0.5-0.5 0.5z" />
            <path d="m46 38.5h-11c-0.3 0-0.5-0.2-0.5-0.5s0.2-0.5 0.5-0.5h11c0.3 0 0.5 0.2 0.5 0.5s-0.2 0.5-0.5 0.5z" />
            <path d="m46 41.5h-11c-0.3 0-0.5-0.2-0.5-0.5s0.2-0.5 0.5-0.5h11c0.3 0 0.5 0.2 0.5 0.5s-0.2 0.5-0.5 0.5z" />
          </g>
          <polygon points="45 36 43 35 41 36 41 13 45 13" fill="#f25353" />
        </g>
      </g>
    </g>
  </g>
</svg>