<?xml version="1.0" encoding="UTF-8" standalone="no"?>
<!-- Created with Inkscape (http://www.inkscape.org/) -->

<svg
   width="127.42358mm"
   height="99.577568mm"
   viewBox="0 0 127.42358 99.577568"
   version="1.1"
   id="svg1671"
   inkscape:version="1.1 (c68e22c387, 2021-05-23)"
   sodipodi:docname="HobbiesDrawing.svg"
   xmlns:inkscape="http://www.inkscape.org/namespaces/inkscape"
   xmlns:sodipodi="http://sodipodi.sourceforge.net/DTD/sodipodi-0.dtd"
   xmlns:xlink="http://www.w3.org/1999/xlink"
   xmlns="http://www.w3.org/2000/svg"
   xmlns:svg="http://www.w3.org/2000/svg">
  <sodipodi:namedview
     id="namedview1673"
     pagecolor="#505050"
     bordercolor="#eeeeee"
     borderopacity="1"
     inkscape:pageshadow="0"
     inkscape:pageopacity="0"
     inkscape:pagecheckerboard="0"
     inkscape:document-units="mm"
     showgrid="false"
     showguides="true"
     inkscape:guide-bbox="true"
     inkscape:zoom="0.64"
     inkscape:cx="-24.21875"
     inkscape:cy="275.78125"
     inkscape:window-width="2560"
     inkscape:window-height="1387"
     inkscape:window-x="3832"
     inkscape:window-y="-8"
     inkscape:window-maximized="1"
     inkscape:current-layer="g56945" />
  <defs
     id="defs1668">
    <linearGradient
       inkscape:collect="always"
       id="linearGradient110265">
      <stop
         style="stop-color:#fffcd3;stop-opacity:1"
         offset="0"
         id="stop110261" />
      <stop
         style="stop-color:#6e6e6e;stop-opacity:0.58333333"
         offset="0.30975637"
         id="stop111357" />
      <stop
         style="stop-color:#141628;stop-opacity:1"
         offset="1"
         id="stop110263" />
    </linearGradient>
    <marker
       style="overflow:visible"
       id="Arrow1Lstart"
       refX="0"
       refY="0"
       orient="auto"
       inkscape:stockid="Arrow1Lstart"
       inkscape:isstock="true">
      <path
         transform="matrix(0.8,0,0,0.8,10,0)"
         style="fill:context-stroke;fill-rule:evenodd;stroke:context-stroke;stroke-width:1pt"
         d="M 0,0 5,-5 -12.5,0 5,5 Z"
         id="path34291" />
    </marker>
    <linearGradient
       inkscape:collect="always"
       xlink:href="#linearGradient110265"
       id="linearGradient110267"
       x1="139.89404"
       y1="-94.597351"
       x2="168.73077"
       y2="-54.671841"
       gradientUnits="userSpaceOnUse"
       gradientTransform="translate(3.8846284e-4,2.8358495e-4)" />
  </defs>
  <g
     inkscape:label="Lager 1"
     inkscape:groupmode="layer"
     id="layer1"
     transform="translate(-345.47669,21.43248)">
    <rect
       style="opacity:1;fill:#dcdee1;fill-opacity:1;stroke:none;stroke-width:3;stroke-linecap:round;stroke-linejoin:round;stroke-miterlimit:4;stroke-dasharray:none;stroke-dashoffset:0;stroke-opacity:0.815686;paint-order:stroke fill markers"
       id="rect48887"
       width="27.801918"
       x="270.1644"
       y="71.003418"
       ry="21.083984"
       height="0" />
    <g
       id="g56945"
       transform="rotate(-9.9001457,-102.63079,-553.76925)">
      <g
         id="g112581"
         transform="translate(99.580556,141.08963)">
        <g
           id="g110241"
           style="stroke:#000000;stroke-width:1.1;stroke-miterlimit:4;stroke-dasharray:none;stroke-opacity:1">
          <path
             style="fill:#344150;fill-opacity:1;stroke:#000000;stroke-width:1.1;stroke-linecap:butt;stroke-linejoin:miter;stroke-miterlimit:4;stroke-dasharray:none;stroke-opacity:1"
             d="m 163.11925,-71.355633 -2.73901,3.220217 7.55222,4.518007 9.06444,-1.591661 -1.56382,-3.813823 c 0,0 -5.21567,-2.877453 -12.31383,-2.33274 z"
             id="path60187" />
          <path
             style="fill:#e2e3e5;fill-opacity:1;stroke:#000000;stroke-width:1.1;stroke-linecap:butt;stroke-linejoin:miter;stroke-miterlimit:4;stroke-dasharray:none;stroke-opacity:1"
             d="m 163.11925,-71.355628 c 0,0 -10.06084,0.237457 -17.16286,9.069794 l 4.34558,-0.553006 c 0,0 4.09563,-4.53094 10.07827,-5.296576 z"
             id="path60189" />
          <path
             style="fill:#e2e3e5;fill-opacity:1;stroke:#000000;stroke-width:1.1;stroke-linecap:butt;stroke-linejoin:miter;stroke-miterlimit:4;stroke-dasharray:none;stroke-opacity:1"
             d="m 175.43308,-69.022888 c 0,0 9.06359,3.522799 12.76919,14.451226 l -4.128,-2.346652 c 0,0 -1.65111,-4.065103 -7.07737,-8.290756 z"
             id="path60417" />
          <path
             style="fill:#344150;fill-opacity:1;stroke:#000000;stroke-width:1.1;stroke-linecap:butt;stroke-linejoin:miter;stroke-miterlimit:4;stroke-dasharray:none;stroke-opacity:1"
             d="m 188.20227,-54.571657 c 0,0 2.00229,5.359156 0.80646,11.760102 l -3.40729,2.841291 -3.61209,-8.158084 2.08492,-8.789966 z"
             id="path60419" />
          <path
             style="fill:#e2e3e5;fill-opacity:1;stroke:#000000;stroke-width:1.1;stroke-linecap:butt;stroke-linejoin:miter;stroke-miterlimit:4;stroke-dasharray:none;stroke-opacity:1"
             d="m 167.93246,-63.617409 -1.58114,8.458225 7.54802,7.84833 8.09,-0.817498 2.08492,-8.789965 c 0,0 -2.19535,-4.553519 -7.07736,-8.290753 z"
             id="path60421" />
          <path
             style="fill:#e2e3e5;fill-opacity:1;stroke:#000000;stroke-width:1.1;stroke-linecap:butt;stroke-linejoin:miter;stroke-miterlimit:4;stroke-dasharray:none;stroke-opacity:1"
             d="m 150.30197,-62.838837 -0.84863,8.76968 7.04028,3.694248 9.8577,-4.784271 1.58114,-8.458224 -7.55222,-4.518008 c 0,0 -5.30514,0.490444 -10.07827,5.296575"
             id="path60536" />
          <path
             style="fill:#344150;fill-opacity:1;stroke:#000000;stroke-width:1.1;stroke-linecap:butt;stroke-linejoin:miter;stroke-miterlimit:4;stroke-dasharray:none;stroke-opacity:1"
             d="m 145.95639,-62.285829 c 0,0 -3.4331,3.44005 -5.0547,11.078125 l 2.25791,3.593983 6.29374,-6.455436 0.84863,-8.76968 z"
             id="path60538" />
          <path
             style="fill:#e2e3e5;fill-opacity:1;stroke:#000000;stroke-width:1.1;stroke-linecap:butt;stroke-linejoin:miter;stroke-miterlimit:4;stroke-dasharray:none;stroke-opacity:1"
             d="m 140.90169,-51.2077 c 0,0 -1.87288,7.725359 2.71412,16.158511 l 1.04169,-4.014805 c 0,0 -1.92389,-5.05696 -1.4979,-8.549727 z"
             id="path60540" />
          <path
             style="fill:#e2e3e5;fill-opacity:1;stroke:#000000;stroke-width:1.1;stroke-linecap:butt;stroke-linejoin:miter;stroke-miterlimit:4;stroke-dasharray:none;stroke-opacity:1"
             d="m 144.6575,-39.06399 7.20559,4.850943 6.13502,-5.696283 -1.50449,-10.465574 -7.04028,-3.694249 -6.29374,6.455437 c 0,0 -0.40497,3.522663 1.4979,8.549726 z"
             id="path60542" />
          <path
             style="fill:#344150;fill-opacity:1;stroke:#000000;stroke-width:1.1;stroke-linecap:butt;stroke-linejoin:miter;stroke-miterlimit:4;stroke-dasharray:none;stroke-opacity:1"
             d="m 157.99811,-39.909325 10.84317,1.892466 5.05806,-9.293991 -7.54802,-7.848327 -9.8577,4.784276 z"
             id="path60544" />
          <path
             style="fill:#e2e3e5;fill-opacity:1;stroke:#000000;stroke-width:1.1;stroke-linecap:butt;stroke-linejoin:miter;stroke-miterlimit:4;stroke-dasharray:none;stroke-opacity:1"
             d="m 168.84128,-38.016855 3.9999,7.438896 8.31656,-2.115622 c 0,0 3.2529,-3.76002 4.44369,-7.276681 l -3.61208,-8.158086 -8.09001,0.817498 z"
             id="path60546" />
          <path
             style="fill:#e2e3e5;fill-opacity:1;stroke:#000000;stroke-width:1.1;stroke-linecap:butt;stroke-linejoin:miter;stroke-miterlimit:4;stroke-dasharray:none;stroke-opacity:1"
             d="m 181.15774,-32.693576 -0.23604,4.207861 c 0,0 6.43445,-4.857145 8.08703,-14.325835 l -3.40729,2.841286 c 0,0 -1.14436,3.551012 -4.4437,7.276688 z"
             id="path60548" />
          <path
             style="fill:#344150;fill-opacity:1;stroke:#000000;stroke-width:1.1;stroke-linecap:butt;stroke-linejoin:miter;stroke-miterlimit:4;stroke-dasharray:none;stroke-opacity:1"
             d="m 180.9217,-28.485712 c 0,0 -5.28545,4.585573 -11.51171,5.544745 l -3.32563,-2.285299 6.75682,-5.351693 8.31656,-2.115617 z"
             id="path60550" />
          <path
             style="fill:#e2e3e5;fill-opacity:1;stroke:#000000;stroke-width:1.1;stroke-linecap:butt;stroke-linejoin:miter;stroke-miterlimit:4;stroke-dasharray:none;stroke-opacity:1"
             d="m 169.40999,-22.940963 c 0,0 -8.6806,1.947168 -16.94311,-3.009553 l 3.56901,-1.213117 c 0,0 4.9304,2.408005 10.04847,1.937367 z"
             id="path60552" />
          <path
             style="fill:#344150;fill-opacity:1;stroke:#000000;stroke-width:1.1;stroke-linecap:butt;stroke-linejoin:miter;stroke-miterlimit:4;stroke-dasharray:none;stroke-opacity:1"
             d="m 143.61581,-35.049185 c 0,0 2.45517,5.018544 8.85107,9.098672 l 3.56901,-1.21312 -4.1728,-7.049414 -7.20559,-4.850943 z"
             id="path60667" />
          <path
             style="fill:#e2e3e5;fill-opacity:1;stroke:#000000;stroke-width:1.1;stroke-linecap:butt;stroke-linejoin:miter;stroke-miterlimit:4;stroke-dasharray:none;stroke-opacity:1"
             d="m 151.86309,-34.213046 4.1728,7.049413 c 0,0 4.61607,2.405604 10.04847,1.937368 l 6.75682,-5.351697 -3.9999,-7.438896 -10.84317,-1.89247 z"
             id="path60669" />
        </g>
        <circle
           style="opacity:0.445238;fill:url(#linearGradient110267);fill-opacity:1;stroke:none;stroke-width:0.365001;stroke-linecap:butt;stroke-linejoin:round;stroke-miterlimit:4;stroke-dasharray:none;stroke-dashoffset:0;stroke-opacity:1;paint-order:stroke fill markers"
           id="path60072"
           cx="154.41206"
           cy="-74.649963"
           r="24.336143"
           transform="rotate(9.9001464)" />
      </g>
      <g
         id="g56989"
         transform="rotate(-7.1625561,280.57626,290.07206)">
        <path
           id="path48396"
           style="opacity:1;fill:#dcdee1;stroke-width:11.3387;stroke-linecap:round;stroke-linejoin:round;stroke-opacity:0.815686;paint-order:stroke fill markers"
           d="m 1077.8047,487.04297 c -4.8837,0 -4.8837,18.75 0,18.75 h 0.3359 370.6953 0.3379 c 4.8837,0 4.8837,-18.75 0,-18.75 h -0.3379 -370.6953 z"
           transform="scale(0.26458333)" />
        <g
           id="g56966">
          <g
             id="g45750"
             transform="matrix(1.1767763,0,0,1.1767763,-77.808237,-24.833307)"
             style="stroke-width:0.849779">
            <path
               id="path45746"
               style="opacity:1;fill:#3c3f41;fill-opacity:1;stroke:none;stroke-width:9.63531;stroke-linecap:round;stroke-linejoin:round;stroke-opacity:0.815686;paint-order:stroke fill markers"
               d="m 1208.1172,423.16016 a 27.068932,78.444653 0 0 0 -27.0684,78.44336 27.068932,78.444653 0 0 0 27.0684,78.44531 h 22.1387 l -1.3008,-0.72656 -9.3789,-6.65039 a 27.068932,78.444653 0 0 0 15.6113,-71.06836 27.068932,78.444653 0 0 0 -13.998,-68.59766 l 3.1269,-0.48633 5.9395,-9.35937 z"
               transform="scale(0.26458333)" />
            <path
               id="path45748"
               style="opacity:1;fill:#2c2e31;fill-opacity:1;stroke:none;stroke-width:2.54934;stroke-linecap:round;stroke-linejoin:round;stroke-opacity:0.815686;paint-order:stroke fill markers"
               d="m 332.66705,132.71602 a 7.1619883,20.755148 0 0 1 -7.16198,20.75515 7.1619883,20.755148 0 0 1 -7.16199,-20.75515 7.1619883,20.755148 0 0 1 7.16199,-20.75515 7.1619883,20.755148 0 0 1 7.16198,20.75515 z" />
          </g>
          <g
             id="g45744"
             transform="translate(-12.317696,-1.3722529)">
            <path
               id="path40714"
               style="opacity:1;fill:#3c3f41;fill-opacity:1;stroke:none;stroke-width:11.3386;stroke-linecap:round;stroke-linejoin:round;stroke-opacity:0.815686;paint-order:stroke fill markers"
               d="m 1208.1172,423.16016 a 27.068932,78.444653 0 0 0 -27.0684,78.44336 27.068932,78.444653 0 0 0 27.0684,78.44531 h 22.1387 l -1.3008,-0.72656 -9.3789,-6.65039 a 27.068932,78.444653 0 0 0 15.6113,-71.06836 27.068932,78.444653 0 0 0 -13.998,-68.59766 l 3.1269,-0.48633 5.9395,-9.35937 z"
               transform="scale(0.26458333)" />
            <path
               id="path40330"
               style="opacity:1;fill:#2c2e31;fill-opacity:1;stroke:none;stroke-width:3;stroke-linecap:round;stroke-linejoin:round;stroke-opacity:0.815686;paint-order:stroke fill markers"
               d="m 332.66705,132.71602 a 7.1619883,20.755148 0 0 1 -7.16198,20.75515 7.1619883,20.755148 0 0 1 -7.16199,-20.75515 7.1619883,20.755148 0 0 1 7.16199,-20.75515 7.1619883,20.755148 0 0 1 7.16198,20.75515 z" />
          </g>
          <g
             id="g48196"
             transform="translate(-12.557373,0.40952535)">
            <g
               id="g47861"
               transform="matrix(-1.1767763,0,0,1.1767763,759.04368,-25.257145)"
               style="stroke-width:0.849779">
              <path
                 id="path47857"
                 style="opacity:1;fill:#3c3f41;fill-opacity:1;stroke:none;stroke-width:9.63531;stroke-linecap:round;stroke-linejoin:round;stroke-opacity:0.815686;paint-order:stroke fill markers"
                 d="m 1208.1172,423.16016 a 27.068932,78.444653 0 0 0 -27.0684,78.44336 27.068932,78.444653 0 0 0 27.0684,78.44531 h 22.1387 l -1.3008,-0.72656 -9.3789,-6.65039 a 27.068932,78.444653 0 0 0 15.6113,-71.06836 27.068932,78.444653 0 0 0 -13.998,-68.59766 l 3.1269,-0.48633 5.9395,-9.35937 z"
                 transform="scale(0.26458333)" />
              <path
                 id="path47859"
                 style="opacity:1;fill:#2c2e31;fill-opacity:1;stroke:none;stroke-width:2.54934;stroke-linecap:round;stroke-linejoin:round;stroke-opacity:0.815686;paint-order:stroke fill markers"
                 d="m 332.66705,132.71602 a 7.1619883,20.755148 0 0 1 -7.16198,20.75515 7.1619883,20.755148 0 0 1 -7.16199,-20.75515 7.1619883,20.755148 0 0 1 7.16199,-20.75515 7.1619883,20.755148 0 0 1 7.16198,20.75515 z" />
            </g>
            <g
               id="g47867"
               transform="matrix(-1,0,0,1,693.55313,-1.796091)">
              <path
                 id="path47863"
                 style="opacity:1;fill:#3c3f41;fill-opacity:1;stroke:none;stroke-width:11.3386;stroke-linecap:round;stroke-linejoin:round;stroke-opacity:0.815686;paint-order:stroke fill markers"
                 d="m 1208.1172,423.16016 a 27.068932,78.444653 0 0 0 -27.0684,78.44336 27.068932,78.444653 0 0 0 27.0684,78.44531 h 22.1387 l -1.3008,-0.72656 -9.3789,-6.65039 a 27.068932,78.444653 0 0 0 15.6113,-71.06836 27.068932,78.444653 0 0 0 -13.998,-68.59766 l 3.1269,-0.48633 5.9395,-9.35937 z"
                 transform="scale(0.26458333)" />
              <path
                 id="path47865"
                 style="opacity:1;fill:#2c2e31;fill-opacity:1;stroke:none;stroke-width:3;stroke-linecap:round;stroke-linejoin:round;stroke-opacity:0.815686;paint-order:stroke fill markers"
                 d="m 332.66705,132.71602 a 7.1619883,20.755148 0 0 1 -7.16198,20.75515 7.1619883,20.755148 0 0 1 -7.16199,-20.75515 7.1619883,20.755148 0 0 1 7.16199,-20.75515 7.1619883,20.755148 0 0 1 7.16198,20.75515 z" />
            </g>
          </g>
          <path
             id="rect45774"
             style="opacity:1;fill:#dcdee1;stroke-width:3.00002;stroke-linecap:round;stroke-linejoin:round;stroke-opacity:0.815686;paint-order:stroke fill markers"
             d="m 315.07182,128.86345 c -1.85342,0 -1.85342,4.96094 0,4.96094 h 38.54183 c 1.85342,0 1.85342,-4.96094 0,-4.96094 z" />
          <rect
             style="opacity:1;fill:#bababa;fill-opacity:1;stroke:#bababa;stroke-width:0.365003;stroke-linecap:butt;stroke-linejoin:round;stroke-miterlimit:4;stroke-dasharray:none;stroke-dashoffset:0;stroke-opacity:1;paint-order:stroke fill markers"
             id="rect53810"
             width="38.912354"
             x="314.91617"
             y="-133.11852"
             ry="2.3175091e-06"
             height="2.989769e-06"
             transform="scale(1,-1)" />
          <rect
             style="opacity:1;fill:#bababa;fill-opacity:1;stroke:#bababa;stroke-width:0.365002;stroke-linecap:butt;stroke-linejoin:round;stroke-miterlimit:4;stroke-dasharray:none;stroke-dashoffset:0;stroke-opacity:1;paint-order:stroke fill markers"
             id="rect56917"
             width="38.912354"
             x="314.91617"
             y="-132.2054"
             ry="7.6973083e-07"
             height="9.9301337e-07"
             transform="scale(1,-1)" />
          <rect
             style="opacity:1;fill:#bababa;fill-opacity:1;stroke:#bababa;stroke-width:0.365002;stroke-linecap:butt;stroke-linejoin:round;stroke-miterlimit:4;stroke-dasharray:none;stroke-dashoffset:0;stroke-opacity:1;paint-order:stroke fill markers"
             id="rect56919"
             width="38.912354"
             x="314.91617"
             y="-131.29228"
             ry="7.6973083e-07"
             height="9.9301337e-07"
             transform="scale(1,-1)" />
          <rect
             style="opacity:1;fill:#bababa;fill-opacity:1;stroke:#bababa;stroke-width:0.365002;stroke-linecap:butt;stroke-linejoin:round;stroke-miterlimit:4;stroke-dasharray:none;stroke-dashoffset:0;stroke-opacity:1;paint-order:stroke fill markers"
             id="rect56921"
             width="38.912354"
             x="314.91617"
             y="-130.37917"
             ry="7.6973083e-07"
             height="9.9301337e-07"
             transform="scale(1,-1)" />
          <rect
             style="opacity:1;fill:#bababa;fill-opacity:1;stroke:#bababa;stroke-width:0.365002;stroke-linecap:butt;stroke-linejoin:round;stroke-miterlimit:4;stroke-dasharray:none;stroke-dashoffset:0;stroke-opacity:1;paint-order:stroke fill markers"
             id="rect56923"
             width="38.912354"
             x="314.91617"
             y="-129.46605"
             ry="7.6973083e-07"
             height="9.9301337e-07"
             transform="scale(1,-1)" />
        </g>
      </g>
      <g
         id="g57051"
         transform="translate(-217.81294,-64.671894)">
        <g
           id="g59352"
           transform="matrix(0.29327697,0.11769147,-0.11769147,0.29327697,499.33017,27.421482)"
           style="stroke-width:3.16445">
          <path
             style="fill:#358fa4;fill-opacity:1;stroke-width:3.16445"
             d="m 260.07694,351.50921 c 0.0796,-0.007 0.20412,0.0151 0.27675,0.0483 0.0726,0.0332 0.008,0.0386 -0.14468,0.012 -0.15222,-0.0266 -0.21165,-0.0537 -0.13207,-0.0603 z m 15.77438,-11.93885 c 0.0342,-0.1957 0.0636,-0.27307 0.0653,-0.17193 0.002,0.10114 -0.0262,0.26126 -0.0621,0.35583 -0.0359,0.0946 -0.0374,0.0118 -0.003,-0.1839 z M 251.1941,315.50098 c -2.30653,-1.07319 -2.85482,-4.12902 -1.07567,-5.99508 1.26382,-1.32558 3.42119,-1.48446 4.93846,-0.36372 0.52501,0.3878 1.14626,1.30339 1.32099,1.94683 0.41284,1.5203 -0.0942,3.03998 -1.32632,3.97514 -1.14137,0.86628 -2.58348,1.02959 -3.85746,0.43683 z"
             id="path57065" />
          <path
             style="fill:#b8574f;stroke-width:3.16445"
             d="m 262.67775,307.28323 c -0.58628,-0.30514 -1.23637,-0.91037 -1.52242,-1.41735 -0.12466,-0.22097 -0.30054,-0.66924 -0.39083,-0.99615 -0.15722,-0.56925 -0.15715,-0.63454 10e-4,-1.54327 0.16262,-0.93178 0.17284,-0.95903 0.56674,-1.51282 1.52232,-2.14016 4.6435,-2.12396 6.14796,0.0319 1.35336,1.93937 0.53294,4.65752 -1.68771,5.59155 -0.91719,0.38578 -2.20003,0.32241 -3.11519,-0.15389 z"
             id="path57063" />
          <path
             style="fill:#b77ea7;fill-opacity:1;stroke-width:3.16445"
             d="m 243.03509,303.89182 c -0.54969,-0.25576 -1.03614,-0.65471 -1.39731,-1.14595 -1.9252,-2.61857 0.13955,-6.2691 3.35846,-5.93785 1.1855,0.122 2.08051,0.659 2.71501,1.629 0.88816,1.3578 0.86898,2.9404 -0.0516,4.25556 -0.34616,0.49453 -1.1757,1.12545 -1.75522,1.33495 -0.88511,0.31998 -2.00366,0.26707 -2.86935,-0.13571 z"
             id="path57061" />
          <path
             style="fill:#c6c6c6;fill-opacity:1;stroke-width:3.16445"
             d="m 154.57308,333.01458 c 0.0611,-0.0129 0.12878,0.002 0.15047,0.0327 0.0217,0.0309 -0.0283,0.0414 -0.11104,0.0234 -0.0915,-0.0199 -0.10692,-0.0419 -0.0394,-0.0561 z m 104.21259,18.19 c 0.0582,-0.0125 0.14714,0.003 0.19768,0.0345 0.0505,0.0314 0.003,0.0416 -0.1058,0.0226 -0.10873,-0.019 -0.15007,-0.0447 -0.0919,-0.0571 z m 2.76754,0.48302 c 0.0582,-0.0125 0.14715,0.003 0.19768,0.0345 0.0505,0.0314 0.003,0.0416 -0.1058,0.0226 -0.10872,-0.019 -0.15007,-0.0447 -0.0919,-0.0571 z m 7.77021,-1.68621 c 0.0939,-0.0732 0.18851,-0.13006 0.21026,-0.12626 0.0217,0.004 -0.0373,0.0668 -0.13119,0.14006 -0.0939,0.0733 -0.18852,0.13007 -0.21026,0.12627 -0.0217,-0.004 0.0373,-0.0668 0.13119,-0.14007 z m -124.45697,-22.2308 -0.25392,-0.39061 0.28151,0.37122 c 0.26179,0.34523 0.30964,0.42454 0.24981,0.4141 -0.0129,-0.002 -0.13775,-0.17987 -0.2774,-0.39471 z m 19.16547,2.93756 c 0.38861,-0.29194 0.47056,-0.34232 0.4602,-0.28295 -0.002,0.0127 -0.20073,0.15221 -0.44115,0.31005 l -0.43712,0.28697 z m 106.07923,18.74811 c 0.003,-0.0164 0.076,-0.0678 0.16253,-0.11423 0.14258,-0.0765 0.14488,-0.0732 0.0247,0.0351 -0.12629,0.11368 -0.19854,0.14424 -0.18718,0.0792 z m -41.84821,-13.60355 c 0.0804,-0.007 0.18696,0.0133 0.23671,0.0443 0.0498,0.031 -0.016,0.0364 -0.14624,0.012 -0.13019,-0.0244 -0.17089,-0.0497 -0.0905,-0.0564 z m -40.90301,-7.2195 c 0.0611,-0.0129 0.12877,0.002 0.15046,0.0327 0.0217,0.0309 -0.0283,0.0414 -0.11103,0.0234 -0.0914,-0.0199 -0.10692,-0.0419 -0.0394,-0.0561 z m 42.38296,7.39712 c 0.0611,-0.0129 0.12878,0.002 0.15047,0.0327 0.0217,0.0309 -0.0283,0.0414 -0.11103,0.0234 -0.0915,-0.0199 -0.10692,-0.0419 -0.0394,-0.0561 z m -87.30746,-18.27845 c 0.019,-0.10873 0.0447,-0.15007 0.0571,-0.0919 0.0124,0.0582 -0.003,0.14715 -0.0345,0.19768 -0.0314,0.0505 -0.0416,0.003 -0.0226,-0.1058 z m 133.08116,23.1792 c 0.0199,-0.0915 0.0419,-0.10692 0.0561,-0.0394 0.0129,0.0611 -0.002,0.12878 -0.0327,0.15047 -0.0309,0.0217 -0.0414,-0.0283 -0.0234,-0.11103 z m -96.17277,-17.69497 c -0.0765,-0.14258 -0.0732,-0.14488 0.0351,-0.0246 0.0657,0.073 0.11709,0.14611 0.11422,0.16253 -0.0114,0.0651 -0.069,0.0118 -0.14929,-0.13789 z m 20.36714,3.34586 c 0.002,-0.0136 0.1382,-0.10906 0.30184,-0.21213 l 0.29752,-0.18739 -0.2771,0.21645 c -0.25829,0.20177 -0.33292,0.24417 -0.32226,0.18307 z m 39.61542,6.91411 c 0.002,-0.0136 0.13821,-0.10907 0.30184,-0.21214 l 0.29752,-0.18739 -0.27709,0.21645 c -0.2583,0.20177 -0.33293,0.24417 -0.32227,0.18308 z m -96.54413,-17.76823 c 0.0199,-0.0915 0.0419,-0.10692 0.0561,-0.0394 0.0129,0.0611 -0.002,0.12878 -0.0327,0.15047 -0.0309,0.0217 -0.0414,-0.0283 -0.0234,-0.11103 z m 75.26318,13.12214 c -0.0765,-0.14258 -0.0732,-0.14489 0.0351,-0.0247 0.11369,0.12629 0.14424,0.19854 0.0792,0.18718 -0.0164,-0.003 -0.0678,-0.076 -0.11423,-0.16253 z m 57.95418,9.31354 c 0.0199,-0.0915 0.0419,-0.10692 0.0561,-0.0394 0.0129,0.0611 -0.002,0.12878 -0.0327,0.15046 -0.0309,0.0217 -0.0414,-0.0283 -0.0234,-0.11103 z m -64.31245,-15.39352 c 0.84228,0.13379 2.19443,0.3698 3.00476,0.52446 0.81033,0.15466 0.12119,0.0452 -1.53142,-0.24327 -1.65262,-0.28845 -2.31562,-0.41499 -1.47334,-0.28119 z m -40.53229,-21.18286 c -0.68444,-0.35738 -1.23246,-1.06819 -1.37219,-1.77978 -0.0705,-0.35902 -0.0152,-0.7681 0.59029,-4.37112 l 0.66807,-3.97503 -4.04514,-0.72918 -4.04513,-0.72918 -0.36782,-0.28441 c -0.46986,-0.36332 -0.86446,-1.00851 -0.95547,-1.56228 -0.06,-0.36479 -0.0252,-0.69769 0.21852,-2.09427 0.24374,-1.39657 0.32383,-1.72156 0.50381,-2.04447 0.27275,-0.48936 0.81399,-0.92375 1.40621,-1.12861 l 0.46441,-0.16065 4.05298,0.68419 4.05299,0.6842 0.71794,-3.96633 c 0.65075,-3.59513 0.73735,-3.99874 0.92529,-4.31265 0.27655,-0.46191 0.82733,-0.89121 1.39556,-1.08777 l 0.4644,-0.16065 1.93728,0.33812 1.93728,0.33811 0.36782,0.28441 c 0.45001,0.34797 0.85518,0.99007 0.95928,1.52025 0.0705,0.35902 0.0153,0.76809 -0.59029,4.37112 l -0.66806,3.97503 4.04513,0.72918 4.04513,0.72917 0.36782,0.28442 c 0.46987,0.36332 0.86447,1.00851 0.95548,1.56227 0.10505,0.63915 -0.40699,3.57297 -0.72234,4.13875 -0.27321,0.49019 -0.86303,0.96357 -1.4282,1.14625 l -0.44241,0.143 -4.05299,-0.68419 -4.05298,-0.68419 -0.71794,3.96632 c -0.65076,3.59514 -0.73735,3.99874 -0.9253,4.31266 -0.27754,0.46357 -0.87626,0.93045 -1.41754,1.10541 -0.44025,0.14231 -0.45131,0.14153 -2.26381,-0.15881 -1.00177,-0.166 -1.9054,-0.34568 -2.00808,-0.39929 z m 83.70726,13.6237 c 0.0939,-0.0732 0.18852,-0.13006 0.21026,-0.12626 0.0218,0.004 -0.0373,0.0668 -0.13118,0.14006 -0.0939,0.0732 -0.18852,0.13006 -0.21026,0.12627 -0.0217,-0.004 0.0373,-0.0668 0.13118,-0.14007 z m 0.92058,-5.31895 -0.11958,-0.2042 0.15162,0.18168 c 0.14249,0.17074 0.1781,0.24253 0.11483,0.23149 -0.015,-0.003 -0.0811,-0.0967 -0.14687,-0.20897 z m 20.29641,-1.12925 c 0.0199,-0.0914 0.0419,-0.10692 0.0561,-0.0394 0.0129,0.0611 -0.002,0.12878 -0.0327,0.15047 -0.0309,0.0217 -0.0414,-0.0283 -0.0234,-0.11103 z m 0.26253,-0.96591 c 0.0266,-0.15221 0.0537,-0.21164 0.0603,-0.13206 0.007,0.0796 -0.0151,0.20412 -0.0483,0.27675 -0.0332,0.0726 -0.0386,0.008 -0.012,-0.14469 z M 152.97412,285.8104 c 0.0199,-0.0915 0.0419,-0.10692 0.0561,-0.0394 0.0129,0.0611 -0.002,0.12877 -0.0327,0.15046 -0.0309,0.0217 -0.0414,-0.0283 -0.0234,-0.11103 z m 0.45542,-2.6094 c 0.0199,-0.0915 0.0419,-0.10692 0.0561,-0.0394 0.0129,0.0611 -0.002,0.12877 -0.0327,0.15046 -0.0309,0.0217 -0.0414,-0.0283 -0.0234,-0.11103 z m 123.48191,21.31371 c 0.0244,-0.13019 0.0498,-0.17089 0.0564,-0.0905 0.007,0.0804 -0.0133,0.18695 -0.0443,0.23671 -0.031,0.0497 -0.0364,-0.0161 -0.012,-0.14625 z m 0.0647,-0.89179 c 0.0199,-0.0915 0.0419,-0.10692 0.0561,-0.0394 0.0129,0.0611 -0.002,0.12878 -0.0327,0.15046 -0.0309,0.0217 -0.0414,-0.0283 -0.0234,-0.11103 z M 203.51593,285.6395 c -0.78225,-0.28893 -1.32926,-0.85075 -1.57665,-1.61935 -0.12214,-0.37947 -0.12432,-0.53101 -0.0165,-1.14879 0.10816,-0.61974 0.16085,-0.75917 0.40789,-1.0796 0.36211,-0.46966 1.00734,-0.86451 1.56155,-0.9556 0.41246,-0.0678 1.06403,0.0401 13.27844,2.19773 l 12.84471,2.26901 0.4203,0.28177 c 0.45526,0.30519 0.78974,0.76569 0.98134,1.35104 0.17583,0.53714 -0.0196,1.65673 -0.36696,2.10255 -0.37893,0.48633 -0.84956,0.80596 -1.38081,0.93779 l -0.49073,0.12177 -12.65906,-2.16554 c -6.96248,-1.19106 -12.81407,-2.2228 -13.00352,-2.29278 z m -31.6571,-31.97073 c 0.1741,-0.12646 0.33434,-0.22683 0.35608,-0.22303 0.0217,0.004 -0.10291,0.11037 -0.27701,0.23683 -0.17409,0.12647 -0.33433,0.22684 -0.35607,0.22304 -0.0217,-0.004 0.1029,-0.11037 0.277,-0.23684 z m 97.77623,17.00383 -0.11958,-0.2042 0.15162,0.18168 c 0.14249,0.17074 0.1781,0.24253 0.11483,0.23149 -0.015,-0.003 -0.0811,-0.0967 -0.14687,-0.20897 z"
             id="path57059" />
          <path
             style="fill:#008071;stroke-width:3.16445"
             d="m 254.59324,295.74285 c -1.005,-0.53937 -1.67057,-1.35552 -1.96552,-2.4102 -0.18304,-0.65448 -0.18341,-0.68358 -0.0208,-1.61536 0.16263,-0.93177 0.17284,-0.95903 0.56675,-1.51281 0.53373,-0.75034 1.20458,-1.22178 2.08681,-1.46649 0.58209,-0.16146 0.75309,-0.17229 1.39798,-0.0886 0.58595,0.0761 0.83992,0.14849 1.25392,0.35757 1.02072,0.51551 1.77983,1.50409 2.01466,2.62366 0.14712,0.70142 -0.0861,2.03764 -0.46202,2.64765 -0.53489,0.86786 -1.5139,1.5547 -2.49665,1.75155 -0.602,0.12058 -1.91028,-0.0375 -2.37514,-0.28698 z"
             id="path57057" />
          <path
             style="fill:#383838;fill-opacity:1;stroke:none;stroke-width:3.16445;stroke-opacity:1"
             d="m 258.51992,351.12829 c -1.98496,-0.60946 -4.06052,-1.73137 -5.48568,-2.96518 -1.11005,-0.96102 -2.18659,-2.29303 -2.82367,-3.49378 -0.20962,-0.39511 -1.85624,-3.87249 -3.65913,-7.72751 -1.8029,-3.85503 -3.30019,-7.04274 -3.32731,-7.08381 -0.0271,-0.0411 -0.29134,0.22449 -0.58717,0.59012 -0.90562,1.11933 -1.79145,1.9338 -3.1148,2.86385 -2.3136,1.62602 -4.6742,2.49894 -7.31888,2.70642 -1.60904,0.12623 -2.04163,0.10024 -3.94976,-0.2373 -1.61512,-0.28572 -1.86581,-0.34972 -2.73017,-0.69717 -2.68632,-1.07983 -4.88525,-2.74473 -6.60338,-4.99971 -1.26141,-1.65553 -2.32852,-4.02236 -2.72242,-6.03821 l -0.10302,-0.52724 -2.94586,-0.51415 -2.94586,-0.51414 3.02233,-17.31692 3.02233,-17.31692 6.46421,1.12813 6.4642,1.12814 0.51439,-0.14186 c 0.54971,-0.1516 0.98289,-0.44956 1.36374,-0.93804 0.34125,-0.43768 0.53776,-1.56363 0.36495,-2.09103 -0.19287,-0.58861 -0.49951,-1.01569 -0.96536,-1.34454 l -0.43592,-0.30771 -6.46419,-1.12827 -6.46418,-1.12826 1.08335,-6.2072 1.08335,-6.20721 11.56979,2.01928 c 12.805,2.23486 12.00828,2.12882 12.82078,1.70651 0.22793,-0.11847 0.52821,-0.35046 0.66729,-0.51555 0.2259,-0.26813 1.86778,-3.27626 2.58759,-4.74081 0.67106,-1.36534 1.75,-2.30952 3.09202,-2.70584 1.28979,-0.38089 1.04571,-0.40924 9.69569,1.12609 l 7.66115,1.35982 0.59494,0.32608 c 1.1434,0.62669 2.06694,1.75409 2.41253,2.94504 0.13615,0.46922 0.35581,2.50227 0.87608,8.10883 l 0.69436,7.4826 0.93704,1.31693 c 2.15073,3.02264 3.37724,6.03781 3.9209,9.63883 0.34126,2.26037 0.34323,4.35819 0.006,6.74439 -0.38727,2.74319 -1.27971,5.58645 -2.38833,7.60908 l -0.28533,0.52057 0.15007,1.81878 c 0.0825,1.00033 0.24011,2.91616 0.35017,4.2574 0.11006,1.34125 0.479,5.75063 0.81986,9.79863 0.34087,4.04801 0.62301,7.61724 0.62698,7.93164 0.0109,0.86146 -0.52241,3.765 -0.87004,4.73703 -1.17361,3.28171 -3.00346,5.87913 -5.29736,7.51945 -1.99682,1.42788 -4.25808,2.10509 -7.13062,2.13552 -0.80543,0.009 -3.43988,-0.38266 -4.24801,-0.6308 z m -27.41116,-20.09797 c 2.03622,-0.0575 3.79164,-0.64108 5.46391,-1.81635 2.31627,-1.62791 3.81633,-4.07486 4.17533,-6.81093 0.34531,-2.63177 -0.23782,-4.98689 -1.77227,-7.15779 -1.57605,-2.22977 -3.77216,-3.62838 -6.42403,-4.09121 -2.57234,-0.44896 -5.08963,0.0922 -7.30513,1.57041 -1.62827,1.0864 -2.82724,2.53 -3.65309,4.39841 -0.31456,0.71169 -0.38971,0.98028 -0.59277,2.11886 -0.17472,0.97962 -0.22573,1.47659 -0.20514,1.99847 0.17539,4.44476 2.97499,8.09864 7.2122,9.41294 0.74556,0.23125 2.16318,0.40368 3.10099,0.37719 z m 22.35288,-12.69713 c 2.19898,-0.2345 4.12537,-1.63725 5.04135,-3.67097 0.36252,-0.80489 0.59198,-2.11963 0.52354,-2.99973 -0.33937,-4.36455 -4.8761,-7.0404 -8.86576,-5.2292 -1.30077,0.59051 -2.45333,1.74555 -3.08224,3.08888 -0.37275,0.79616 -0.61989,2.21745 -0.54029,3.10687 0.0998,1.11421 0.575,2.3726 1.21551,3.21863 1.36687,1.80548 3.47528,2.7236 5.70786,2.48551 z m -1.48997,-2.54454 c 0.12337,0.003 0.3012,0.0343 0.39518,0.0701 0.094,0.0357 -0.007,0.0334 -0.2243,-0.005 -0.21734,-0.0386 -0.29424,-0.0678 -0.17088,-0.065 z m 3.12096,-0.7313 c 0.003,-0.0164 0.076,-0.0678 0.16253,-0.11422 0.14258,-0.0765 0.14488,-0.0732 0.0246,0.0351 -0.12629,0.11369 -0.19853,0.14424 -0.18717,0.0792 z m -6.08045,-3.35267 c 0.0244,-0.1302 0.0498,-0.1709 0.0564,-0.0905 0.007,0.0804 -0.0133,0.18696 -0.0443,0.23671 -0.031,0.0498 -0.0364,-0.0161 -0.012,-0.14624 z m 7.47424,1.06003 c 0.0244,-0.13019 0.0498,-0.17089 0.0564,-0.0905 0.007,0.0804 -0.0133,0.18696 -0.0443,0.23671 -0.031,0.0497 -0.0364,-0.0161 -0.012,-0.14624 z m -7.39143,-1.53447 c 0.0243,-0.13019 0.0497,-0.1709 0.0564,-0.0905 0.007,0.0804 -0.0133,0.18695 -0.0443,0.23671 -0.031,0.0497 -0.0364,-0.0161 -0.012,-0.14625 z m 6.9136,-1.01373 c -0.0765,-0.14258 -0.0732,-0.14489 0.0351,-0.0247 0.0657,0.073 0.11709,0.14611 0.11422,0.16253 -0.0114,0.0651 -0.069,0.0119 -0.14929,-0.13788 z m -2.73966,-1.8607 c 0.12337,0.003 0.3012,0.0343 0.39517,0.0701 0.094,0.0358 -0.007,0.0335 -0.2243,-0.005 -0.21734,-0.0386 -0.29423,-0.0678 -0.17087,-0.065 z m -7.96631,-1.63178 c 2.19899,-0.2345 4.12538,-1.63725 5.04135,-3.67097 0.36253,-0.80489 0.59199,-2.11963 0.52355,-2.99973 -0.33937,-4.36455 -4.8761,-7.04041 -8.86577,-5.22921 -1.30076,0.59052 -2.45332,1.74556 -3.08223,3.08889 -0.37275,0.79616 -0.6199,2.21745 -0.54029,3.10686 0.13163,1.46997 0.82616,2.95159 1.85171,3.9502 1.36612,1.33022 3.17592,1.95611 5.07165,1.75395 z m -1.45072,-2.53686 c 0.10166,-0.002 0.24386,0.0238 0.31601,0.0568 0.0721,0.033 -0.0111,0.0344 -0.18484,0.003 -0.17381,-0.0312 -0.23284,-0.0582 -0.13117,-0.06 z m 0.80821,0.0616 c 0.0611,-0.0129 0.12878,0.002 0.15047,0.0327 0.0217,0.0309 -0.0283,0.0414 -0.11103,0.0234 -0.0915,-0.0199 -0.10692,-0.0419 -0.0394,-0.0561 z m 2.04301,-0.64703 c 0.20023,-0.14431 0.38185,-0.25928 0.40359,-0.25549 0.0217,0.004 -0.12429,0.12498 -0.32452,0.26929 -0.20022,0.14431 -0.38184,0.25928 -0.40358,0.25549 -0.0217,-0.004 0.12429,-0.12498 0.32451,-0.26929 z m -5.79945,-3.74181 c 0.0463,-0.2608 0.0777,-0.3555 0.0705,-0.21031 -0.007,0.1452 -0.0448,0.35863 -0.0836,0.4743 -0.0388,0.11567 -0.0329,-0.003 0.0131,-0.26398 z m 7.41572,1.28748 c 0.0199,-0.0915 0.0419,-0.10691 0.0561,-0.0394 0.0129,0.0611 -0.002,0.12878 -0.0327,0.15047 -0.0309,0.0217 -0.0414,-0.0283 -0.0234,-0.11104 z m -6.34385,-3.3719 c 0.003,-0.0164 0.076,-0.0678 0.16253,-0.11423 0.14259,-0.0765 0.14489,-0.0732 0.0247,0.0351 -0.12629,0.11368 -0.19853,0.14424 -0.18718,0.0792 z m 5.68486,0.57479 c -0.15791,-0.22922 -0.26932,-0.41367 -0.24758,-0.40987 0.0217,0.004 0.16874,0.19445 0.32665,0.42368 0.15791,0.22922 0.26932,0.41367 0.24758,0.40987 -0.0217,-0.004 -0.16874,-0.19445 -0.32665,-0.42368 z m -1.73064,-1.37622 c 0.0611,-0.0129 0.12878,0.002 0.15047,0.0327 0.0217,0.0309 -0.0283,0.0414 -0.11103,0.0234 -0.0915,-0.0199 -0.10692,-0.0419 -0.0394,-0.0561 z m -0.86063,-0.23353 c 0.10115,-0.002 0.26127,0.0262 0.35583,0.0621 0.0946,0.0359 0.0118,0.0374 -0.18389,0.003 -0.19571,-0.0342 -0.27308,-0.0636 -0.17194,-0.0653 z m 20.00167,13.43368 c 2.19898,-0.2345 4.12538,-1.63725 5.04135,-3.67097 0.36252,-0.80489 0.59198,-2.11963 0.52354,-2.99973 -0.31118,-4.0021 -4.20292,-6.68387 -8.03767,-5.53871 -1.70583,0.50941 -3.14222,1.75775 -3.91033,3.39839 -0.37274,0.79616 -0.61989,2.21745 -0.54028,3.10686 0.13162,1.46997 0.82615,2.95159 1.85171,3.9502 1.36612,1.33022 3.17592,1.95611 5.07165,1.75395 z m -1.48996,-2.54455 c 0.12337,0.003 0.30119,0.0344 0.39517,0.0701 0.094,0.0358 -0.007,0.0335 -0.2243,-0.005 -0.21734,-0.0386 -0.29424,-0.0678 -0.17087,-0.065 z m 2.56371,-0.33966 c 0.003,-0.0164 0.076,-0.0678 0.16253,-0.11422 0.14258,-0.0765 0.14489,-0.0732 0.0247,0.0351 -0.12629,0.11369 -0.19854,0.14424 -0.18718,0.0792 z m 0.55724,-0.39163 c 0.003,-0.0164 0.076,-0.0678 0.16253,-0.11423 0.14258,-0.0765 0.14489,-0.0732 0.0247,0.0351 -0.12629,0.11369 -0.19854,0.14424 -0.18718,0.0792 z m -6.02995,-3.58831 c 0.0463,-0.2608 0.0777,-0.3555 0.0705,-0.21031 -0.007,0.1452 -0.0448,0.35863 -0.0836,0.4743 -0.0388,0.11567 -0.0329,-0.003 0.0131,-0.26398 z m 7.41572,1.28748 c 0.0199,-0.0915 0.0419,-0.10691 0.0561,-0.0394 0.0129,0.0611 -0.002,0.12878 -0.0327,0.15047 -0.0309,0.0217 -0.0414,-0.0283 -0.0234,-0.11104 z m -0.46981,-2.54001 c -0.0765,-0.14258 -0.0732,-0.14489 0.0351,-0.0246 0.0657,0.073 0.11709,0.14611 0.11422,0.16253 -0.0113,0.0651 -0.069,0.0119 -0.14929,-0.13788 z m -2.73966,-1.8607 c 0.12337,0.003 0.3012,0.0343 0.39518,0.0701 0.094,0.0357 -0.007,0.0335 -0.2243,-0.005 -0.21734,-0.0386 -0.29424,-0.0678 -0.17088,-0.065 z m -8.13225,-1.61468 c 2.22989,-0.16362 4.27101,-1.60925 5.2073,-3.68807 0.36252,-0.8049 0.59198,-2.11963 0.52354,-2.99974 -0.33949,-4.36612 -4.87634,-7.04215 -8.86573,-5.22938 -1.30299,0.59207 -2.45792,1.75029 -3.08058,3.08936 -0.19992,0.42994 -0.30987,0.81673 -0.43347,1.52493 -0.18948,1.08566 -0.15791,1.86119 0.11239,2.76093 0.52532,1.74863 1.5627,3.01942 3.16222,3.87372 0.98963,0.52857 2.14898,0.75816 3.37433,0.66825 z m -4.2421,-6.88284 c 0.0244,-0.13019 0.0498,-0.17089 0.0564,-0.0905 0.007,0.0804 -0.0133,0.18695 -0.0443,0.23671 -0.031,0.0497 -0.0364,-0.0161 -0.012,-0.14625 z m -64.91183,36.97611 c 0.0582,-0.0125 0.14715,0.003 0.19769,0.0345 0.0505,0.0314 0.003,0.0416 -0.10581,0.0226 -0.10872,-0.019 -0.15007,-0.0447 -0.0919,-0.0571 z m 2.13497,0.37262 c 0.0582,-0.0125 0.14715,0.003 0.19768,0.0345 0.0505,0.0314 0.003,0.0416 -0.1058,0.0226 -0.10873,-0.019 -0.15007,-0.0447 -0.0919,-0.0571 z m -2.90666,-0.59048 c 0.0611,-0.0129 0.12878,0.002 0.15046,0.0327 0.0217,0.0309 -0.0283,0.0414 -0.11103,0.0234 -0.0915,-0.0199 -0.10692,-0.0419 -0.0394,-0.0561 z m 12.21057,-1.47988 c 0.0939,-0.0732 0.18852,-0.13006 0.21026,-0.12627 0.0217,0.004 -0.0373,0.0668 -0.13118,0.14007 -0.0939,0.0732 -0.18852,0.13006 -0.21026,0.12626 -0.0217,-0.004 0.0373,-0.0668 0.13118,-0.14006 z m -20.0396,-4.25128 -0.25392,-0.39061 0.28151,0.37122 c 0.15483,0.20418 0.27966,0.3818 0.27741,0.39471 -0.0105,0.0598 -0.0689,-0.012 -0.305,-0.37532 z m -36.25034,-6.76135 c 0.0199,-0.0915 0.0419,-0.10692 0.0561,-0.0394 0.0129,0.0611 -0.002,0.12878 -0.0327,0.15047 -0.0309,0.0217 -0.0414,-0.0283 -0.0234,-0.11103 z m 45.73205,7.77998 c -2.82182,-0.8639 -5.12538,-2.89718 -6.34191,-5.59783 -0.50602,-1.12333 -0.86154,-2.88196 -0.84221,-4.16608 0.0152,-1.00704 0.32257,-2.56346 0.68815,-3.48411 2.47635,-6.23624 10.09169,-8.37765 15.42255,-4.33676 2.07874,1.57572 3.44148,3.88951 3.84046,6.52069 0.2999,1.97777 -0.10113,4.34018 -1.03526,6.09861 -1.23162,2.31844 -3.37972,4.11632 -5.84035,4.88816 -1.91092,0.5994 -4.09257,0.62804 -5.89143,0.0773 z m 12.18149,2.10001 c 0.003,-0.0164 0.076,-0.0678 0.16253,-0.11422 0.14257,-0.0765 0.14488,-0.0732 0.0246,0.0351 -0.12629,0.11368 -0.19853,0.14424 -0.18717,0.0792 z m -28.3887,-23.96982 c 0.42651,0.0598 1.12038,0.18089 1.54192,0.26912 0.42155,0.0882 0.0726,0.0393 -0.77547,-0.10871 -0.84805,-0.14801 -1.19296,-0.22019 -0.76645,-0.16041 z m -2.11552,-1.10292 -0.15374,-0.2509 0.18399,0.22964 c 0.17197,0.21465 0.21127,0.28749 0.14925,0.27666 -0.0142,-0.002 -0.0949,-0.1174 -0.1795,-0.2554 z m 5.93299,1.05586 c 0.12112,-0.0909 0.238,-0.16216 0.25975,-0.15837 0.0217,0.004 -0.0596,0.0813 -0.18068,0.17217 -0.12112,0.0909 -0.238,0.16216 -0.25975,0.15837 -0.0217,-0.004 0.0596,-0.0813 0.18068,-0.17217 z m -6.38811,-2.54084 c 0.019,-0.10873 0.0447,-0.15007 0.0571,-0.0919 0.0125,0.0582 -0.003,0.14714 -0.0345,0.19768 -0.0314,0.0505 -0.0416,0.003 -0.0226,-0.1058 z m 7.35557,1.23624 c 0.0199,-0.0915 0.0419,-0.10692 0.0561,-0.0394 0.0129,0.0611 -0.002,0.12878 -0.0327,0.15047 -0.0309,0.0217 -0.0414,-0.0283 -0.0234,-0.11103 z M 165.2478,290.46496 c 1.05378,0.17109 2.79734,0.47538 3.87456,0.6762 1.07723,0.20082 0.21504,0.0608 -1.91597,-0.31107 -2.13101,-0.37192 -3.01238,-0.53622 -1.95859,-0.36513 z m 15.10288,2.63591 c 1.05379,0.17109 2.79734,0.47538 3.87457,0.6762 1.07722,0.20082 0.21503,0.0608 -1.91598,-0.31107 -2.13101,-0.37191 -3.01238,-0.53622 -1.95859,-0.36513 z m -18.35952,-3.93771 -0.15375,-0.25091 0.184,0.22965 c 0.17197,0.21464 0.21126,0.28748 0.14925,0.27666 -0.0142,-0.002 -0.0949,-0.1174 -0.1795,-0.2554 z m 25.70116,4.50601 c 0.12112,-0.0909 0.23801,-0.16217 0.25975,-0.15837 0.0217,0.004 -0.0596,0.0813 -0.18068,0.17217 -0.12111,0.0909 -0.238,0.16216 -0.25975,0.15837 -0.0217,-0.004 0.0596,-0.0813 0.18068,-0.17217 z m -26.15628,-5.991 c 0.019,-0.10872 0.0447,-0.15007 0.0571,-0.0919 0.0125,0.0582 -0.003,0.14715 -0.0345,0.19768 -0.0314,0.0505 -0.0416,0.003 -0.0226,-0.1058 z m 27.12374,4.68639 c 0.0199,-0.0915 0.0419,-0.10692 0.0561,-0.0394 0.0129,0.0611 -0.002,0.12878 -0.0327,0.15047 -0.0309,0.0217 -0.0414,-0.0283 -0.0234,-0.11103 z m -35.27164,-8.92634 c 0.0199,-0.0915 0.0419,-0.10692 0.0561,-0.0394 0.0129,0.0611 -0.002,0.12877 -0.0327,0.15046 -0.0309,0.0217 -0.0414,-0.0283 -0.0234,-0.11103 z m 8.71372,0.99797 c 0.019,-0.10872 0.0447,-0.15007 0.0571,-0.0919 0.0125,0.0582 -0.003,0.14715 -0.0345,0.19768 -0.0314,0.0505 -0.0416,0.003 -0.0226,-0.1058 z m 27.10994,4.76547 c 0.0199,-0.0915 0.0419,-0.10692 0.0561,-0.0394 0.0129,0.0611 -0.002,0.12878 -0.0327,0.15047 -0.0309,0.0217 -0.0414,-0.0283 -0.0234,-0.11103 z m -26.16926,-6.02721 c 0.12112,-0.0909 0.23801,-0.16217 0.25975,-0.15837 0.0218,0.004 -0.0596,0.0813 -0.18068,0.17217 -0.12111,0.0909 -0.238,0.16216 -0.25975,0.15837 -0.0217,-0.004 0.0596,-0.0813 0.18068,-0.17217 z m 25.69609,4.46438 -0.15374,-0.25091 0.18399,0.22965 c 0.17197,0.21464 0.21127,0.28748 0.14925,0.27666 -0.0142,-0.002 -0.0949,-0.1174 -0.1795,-0.2554 z m -22.19358,-4.60671 c 1.05379,0.17109 2.79734,0.47538 3.87457,0.6762 1.07722,0.20083 0.21504,0.0608 -1.91598,-0.31107 -2.13101,-0.37191 -3.01237,-0.53622 -1.95859,-0.36513 z m 15.10289,2.63592 c 1.05378,0.17109 2.79734,0.47538 3.87457,0.6762 1.07722,0.20082 0.21503,0.0608 -1.91598,-0.31107 -2.13101,-0.37191 -3.01238,-0.53622 -1.95859,-0.36513 z m 21.88587,-0.005 c 0.0804,-0.007 0.18695,0.0133 0.2367,0.0443 0.0498,0.031 -0.016,0.0364 -0.14624,0.012 -0.13019,-0.0244 -0.1709,-0.0498 -0.0905,-0.0564 z m -1.32558,-0.96933 -0.15374,-0.25091 0.18399,0.22965 c 0.1012,0.12631 0.18197,0.24124 0.1795,0.2554 -0.0108,0.062 -0.066,3.7e-4 -0.20975,-0.23414 z m -0.38556,-1.83951 c 0.0312,-0.17381 0.0582,-0.23284 0.06,-0.13118 0.002,0.10166 -0.0238,0.24387 -0.0568,0.31601 -0.033,0.0722 -0.0344,-0.011 -0.003,-0.18483 z m -28.11165,-6.57671 c 0.019,-0.10873 0.0447,-0.15007 0.0571,-0.0919 0.0125,0.0582 -0.003,0.14715 -0.0345,0.19768 -0.0314,0.0505 -0.0416,0.003 -0.0226,-0.1058 z m 7.34177,1.31531 c 0.0199,-0.0915 0.0419,-0.10692 0.0561,-0.0394 0.0129,0.0611 -0.002,0.12878 -0.0327,0.15047 -0.0309,0.0217 -0.0414,-0.0283 -0.0234,-0.11104 z m 21.7652,3.64252 c 0.12112,-0.0909 0.23801,-0.16216 0.25975,-0.15837 0.0217,0.004 -0.0596,0.0813 -0.18067,0.17217 -0.12112,0.0909 -0.23801,0.16217 -0.25975,0.15837 -0.0217,-0.004 0.0596,-0.0813 0.18067,-0.17217 z m 1.57145,-0.47479 c 0.0804,-0.007 0.18696,0.0133 0.23671,0.0443 0.0497,0.031 -0.0161,0.0364 -0.14624,0.012 -0.13019,-0.0244 -0.1709,-0.0498 -0.0905,-0.0564 z m -29.73774,-5.74479 c 0.12112,-0.0909 0.23801,-0.16216 0.25975,-0.15836 0.0217,0.004 -0.0596,0.0813 -0.18067,0.17216 -0.12112,0.0909 -0.23801,0.16217 -0.25975,0.15837 -0.0217,-0.004 0.0596,-0.0813 0.18067,-0.17217 z m 5.92792,1.01424 -0.15374,-0.25091 0.18399,0.22965 c 0.17197,0.21464 0.21126,0.28748 0.14925,0.27666 -0.0142,-0.002 -0.0949,-0.1174 -0.1795,-0.2554 z m -3.56652,-1.35544 c 0.42651,0.0598 1.12037,0.18089 1.54192,0.26912 0.42154,0.0882 0.0726,0.0393 -0.77547,-0.10871 -0.84806,-0.14801 -1.19296,-0.22019 -0.76645,-0.16041 z m -15.63238,-3.92056 c 0.003,-0.0164 0.076,-0.0678 0.16253,-0.11423 0.14258,-0.0765 0.14489,-0.0732 0.0247,0.0351 -0.12629,0.11368 -0.19853,0.14424 -0.18718,0.0792 z m 1.85747,-1.30544 c 0.003,-0.0164 0.076,-0.0678 0.16253,-0.11423 0.14258,-0.0765 0.14489,-0.0732 0.0246,0.0351 -0.12628,0.11369 -0.19853,0.14425 -0.18717,0.0792 z m 31.66496,-3.83346 -0.11958,-0.2042 0.15162,0.18168 c 0.0834,0.0999 0.14948,0.19396 0.14686,0.20896 -0.011,0.0633 -0.0665,0.005 -0.1789,-0.18644 z m -19.65052,-12.83356 c 0.0582,-0.0125 0.14715,0.003 0.19768,0.0345 0.0505,0.0314 0.003,0.0416 -0.1058,0.0226 -0.10872,-0.019 -0.15007,-0.0447 -0.0919,-0.0571 z m 14.70752,2.56691 c 0.0582,-0.0125 0.14715,0.003 0.19769,0.0345 0.0505,0.0314 0.003,0.0416 -0.10581,0.0226 -0.10872,-0.019 -0.15007,-0.0447 -0.0919,-0.0571 z"
             id="path57055" />
          <path
             style="fill:#1f1f1f;fill-opacity:1;stroke-width:3.16445"
             d="m 151.82642,332.49946 c -2.43296,-0.71879 -4.43038,-1.90905 -5.94133,-3.54045 -3.25812,-3.51781 -4.37863,-9.41316 -2.7177,-14.29868 0.12958,-0.38115 2.07846,-4.71601 4.33084,-9.63301 2.25238,-4.917 4.46775,-9.75459 4.92304,-10.75019 l 0.82781,-1.81019 -0.11123,-0.71289 c -0.39847,-2.55383 -0.31392,-5.60052 0.22169,-7.98811 0.7695,-3.43023 2.0381,-6.20669 4.0623,-8.89075 1.50079,-1.99004 3.07846,-3.49183 5.26042,-5.00745 l 1.36294,-0.94671 2.55805,-5.45783 c 1.40693,-3.00181 2.84864,-6.08294 3.2038,-6.84697 0.41004,-0.88208 0.78714,-1.57468 1.0331,-1.89746 0.52215,-0.68523 1.5786,-1.4269 2.40296,-1.68697 1.26575,-0.39933 0.74856,-0.45745 9.45988,1.06295 l 7.78867,1.35936 0.56086,0.28786 c 1.52836,0.78444 2.55886,2.19299 2.76381,3.77775 0.0428,0.33126 0.23295,1.69837 0.42246,3.038 0.36579,2.58567 0.45642,2.90426 0.97042,3.41153 0.57946,0.57187 -0.12843,0.42277 12.44348,2.62083 l 11.60332,2.02871 -1.07645,6.16767 -1.07645,6.16767 -6.351,-1.10844 c -7.06514,-1.23309 -6.79391,-1.20539 -7.61971,-0.77809 -0.32361,0.16745 -0.55009,0.36777 -0.81635,0.72206 -0.3211,0.42726 -0.38148,0.56469 -0.4694,1.06841 -0.0879,0.50373 -0.0777,0.65348 0.0797,1.16425 0.13051,0.42354 0.27574,0.68875 0.52349,0.95591 0.63224,0.68177 0.36766,0.61595 7.4328,1.84904 l 6.351,1.10844 -3.01543,17.27739 -3.01543,17.27738 -2.91317,-0.50844 -2.91318,-0.50843 -0.14468,0.2892 c -0.26716,0.53399 -1.3934,2.00133 -2.10355,2.74063 -1.38824,1.44522 -2.96738,2.55093 -4.80039,3.36122 -4.23749,1.8732 -9.08533,1.66592 -13.18308,-0.56368 -3.25055,-1.76864 -5.73994,-4.72155 -6.99724,-8.30011 l -0.30779,-0.87605 -5.83455,5.85524 c -5.98169,6.00292 -6.5851,6.56003 -7.91539,7.30814 -3.2586,1.83252 -7.58553,2.29784 -11.26337,1.21126 z m 39.64795,-8.34837 c 3.62168,-0.0532 7.01374,-2.14021 8.73031,-5.37152 0.93413,-1.75843 1.33516,-4.12084 1.03526,-6.09861 -0.65451,-4.3164 -3.91955,-7.67713 -8.17928,-8.41899 -4.18809,-0.72938 -8.39239,1.24496 -10.46924,4.91638 -0.75928,1.34222 -1.27941,3.25996 -1.30264,4.80279 -0.0668,4.44114 2.88001,8.44621 7.18412,9.76391 0.73722,0.22569 2.16148,0.41837 3.00147,0.40604 z M 175.4195,302.1605 c 0.4278,-0.13192 0.69247,-0.27661 0.96031,-0.52499 0.65536,-0.60774 0.66177,-0.63012 1.41372,-4.93859 l 0.67313,-3.85678 3.98559,0.67171 3.98558,0.6717 0.5907,-0.18209 c 0.68494,-0.21113 1.2197,-0.64771 1.51561,-1.2373 0.26277,-0.52357 0.7618,-3.38284 0.69192,-3.96447 -0.0787,-0.65497 -0.43396,-1.24688 -1.00688,-1.67755 l -0.49409,-0.37142 -3.97749,-0.71809 -3.97749,-0.7181 0.67313,-3.85678 c 0.75195,-4.30846 0.75351,-4.3317 0.34276,-5.1255 -0.16796,-0.32461 -0.36775,-0.55007 -0.72599,-0.8193 l -0.49426,-0.37145 -1.79508,-0.3133 -1.79508,-0.31329 -0.59086,0.18206 c -0.43032,0.13259 -0.69076,0.27532 -0.95853,0.5253 -0.67066,0.62609 -0.65168,0.56011 -1.40885,4.89842 l -0.68008,3.89659 -3.98558,-0.67171 -3.98559,-0.67171 -0.5907,0.18209 c -0.43006,0.13257 -0.69068,0.27543 -0.95836,0.52533 -0.60719,0.56684 -0.69133,0.78727 -1.02058,2.67372 -0.32924,1.88646 -0.32475,2.12236 0.0545,2.86137 0.16721,0.3258 0.36403,0.54849 0.72376,0.81891 l 0.4941,0.37142 3.97749,0.71809 3.97749,0.71809 -0.68008,3.89659 c -0.75234,4.31068 -0.74865,4.25789 -0.35337,5.05709 0.22772,0.46044 0.6911,0.89689 1.22,1.1491 0.23837,0.11367 0.84443,0.24568 1.97618,0.43045 l 1.63237,0.2665 z m 52.58827,28.49263 c -4.23721,-1.3143 -7.03681,-4.96818 -7.2122,-9.41294 -0.0206,-0.52188 0.0304,-1.01885 0.20514,-1.99847 0.20306,-1.13858 0.27821,-1.40717 0.59277,-2.11886 0.82585,-1.86841 2.02482,-3.31201 3.65309,-4.39841 2.2155,-1.47822 4.73279,-2.01937 7.30513,-1.57041 2.65187,0.46283 4.84798,1.86144 6.42403,4.09121 1.53445,2.1709 2.11758,4.52602 1.77227,7.15779 -0.558,4.25278 -3.94085,7.75788 -8.20148,8.49787 -1.34483,0.23356 -3.33764,0.12477 -4.53875,-0.24778 z m 22.89949,-12.5508 c -2.3972,-0.76014 -4.14277,-2.94692 -4.36898,-5.47329 -0.0796,-0.88942 0.1675,-2.31071 0.54028,-3.10686 0.62891,-1.34333 1.78147,-2.49838 3.08224,-3.08889 3.02473,-1.37315 6.57344,-0.19071 8.12316,2.70666 0.6934,1.29637 0.89532,2.57747 0.63833,4.0499 -0.40641,2.32864 -1.93677,4.10893 -4.19182,4.87644 -1.11602,0.37984 -2.69212,0.3947 -3.82318,0.036 z m 1.88412,-2.20046 c 1.00428,-0.008 2.10054,-0.48719 2.76312,-1.20803 0.52089,-0.5667 0.78979,-1.12441 0.93029,-1.92941 0.32664,-1.87155 -0.69629,-3.59972 -2.50524,-4.23242 -1.91128,-0.66848 -4.0936,0.42245 -4.78339,2.39119 -0.634,1.80954 0.35244,3.95846 2.15384,4.69204 0.59842,0.2437 0.8382,0.29138 1.44138,0.28663 z m -10.04535,-9.40934 c -2.39802,-0.76011 -4.14031,-2.94363 -4.36677,-5.47265 -0.0796,-0.88942 0.16751,-2.31071 0.54029,-3.10687 0.62891,-1.34332 1.78147,-2.49837 3.08224,-3.08888 3.02473,-1.37315 6.57344,-0.19071 8.12316,2.70666 0.69339,1.29637 0.89532,2.57747 0.63833,4.0499 -0.40642,2.32864 -1.93677,4.10893 -4.19182,4.87644 -1.11685,0.38012 -2.69188,0.3947 -3.8254,0.0354 z m 2.48434,-2.25938 c 1.60551,-0.25674 2.80961,-1.45492 3.09347,-3.07822 0.32794,-1.8743 -0.71279,-3.61986 -2.52371,-4.23351 -2.34617,-0.79502 -4.93877,1.0331 -4.94865,3.48945 -0.003,0.85043 0.2174,1.55922 0.69893,2.24342 0.86197,1.2248 2.22829,1.81101 3.67996,1.57886 z m 17.28384,5.70953 c -2.39802,-0.76011 -4.14032,-2.94363 -4.36677,-5.47265 -0.0796,-0.88942 0.16751,-2.31071 0.54029,-3.10687 1.74752,-3.73262 6.48446,-4.83888 9.66074,-2.25616 1.31794,1.07165 2.15364,2.67799 2.28725,4.39648 0.0684,0.88011 -0.16102,2.19484 -0.52354,2.99973 -0.91597,2.03373 -2.84236,3.43648 -5.04135,3.67097 -0.8135,0.0867 -1.84812,-0.007 -2.55659,-0.23149 z m 1.88633,-2.19982 c 1.84332,-0.0145 3.37359,-1.31516 3.69168,-3.13774 0.3254,-1.8644 -0.70263,-3.60225 -2.50351,-4.23212 -1.91127,-0.66848 -4.0936,0.42245 -4.78339,2.39119 -0.634,1.80954 0.35244,3.95846 2.15385,4.69204 0.59841,0.2437 0.83819,0.29138 1.44137,0.28663 z m -10.04322,-9.40819 c -1.60084,-0.50938 -3.02749,-1.73894 -3.73001,-3.21474 -0.63248,-1.32864 -0.78107,-2.40455 -0.53041,-3.84071 0.18948,-1.08567 0.48189,-1.80465 1.04099,-2.55964 0.87267,-1.17842 1.96344,-1.95994 3.30337,-2.36681 3.31342,-1.00613 6.8664,0.94021 7.81018,4.27844 0.51223,1.81183 0.15759,3.84377 -0.9381,5.37496 -1.53475,2.14477 -4.45806,3.12333 -6.95602,2.3285 z m 2.71193,-2.32075 c 2.35457,-0.62812 3.54404,-3.0288 2.58092,-5.20899 -0.28673,-0.64907 -0.68439,-1.12057 -1.3296,-1.57648 -0.46585,-0.32917 -0.54195,-0.35668 -1.40193,-0.50677 -1.10003,-0.19199 -1.66321,-0.11645 -2.47328,0.33176 -2.38595,1.32013 -2.65666,4.6407 -0.51019,6.25815 0.62845,0.47356 0.90288,0.58313 1.79007,0.71471 0.71634,0.10624 0.90591,0.10449 1.34401,-0.0124 z"
             id="path57053" />
        </g>
      </g>
    </g>
  </g>
</svg>
