<?xml version="1.0" encoding="UTF-8"?>
<!-- Created with Inkscape (http://www.inkscape.org/) -->
<svg version="1.1" viewBox="0 0 843.93 582.32" xmlns="http://www.w3.org/2000/svg">
  <g transform="translate(1227.9 514.91)">
    <g transform="rotate(-5.0058,-3590.4,834.3)">
      <rect x="-915.5" y="-52.817" width="326.96" height="326.96" fill="#098ee8"
        style="paint-order:stroke fill markers" />
      <path transform="scale(.26458)" d="m-3460.1 1036.1-85.555 85.555h1235.8l85.553-85.555z" fill="#004776" />
      <path d="m-915.5-52.817-22.636 22.636v326.96l22.636-22.636z" fill="#08629f" />
      <g fill="#fff" stroke-width=".26458" aria-label="TS">
        <path d="m-762.33 257.06v-94.814h-33.862v-19.305h90.689v19.305h-33.784v94.814z" />
        <path
          d="m-696.48 219.93 22.419-2.1796q2.024 11.287 8.1736 16.581 6.2275 5.2934 16.737 5.2934 11.132 0 16.737-4.6706 5.6826-4.7485 5.6826-11.054 0-4.0479-2.4132-6.8503-2.3353-2.8802-8.2515-4.982-4.0479-1.4012-18.449-4.982-18.527-4.5928-26-11.287-10.509-9.4192-10.509-22.964 0-8.7186 4.9042-16.269 4.982-7.6287 14.245-11.599 9.3413-3.9701 22.497-3.9701 21.485 0 32.305 9.4192 10.898 9.4192 11.443 25.144l-23.042 1.012q-1.479-8.7964-6.3832-12.611-4.8263-3.8922-14.557-3.8922-10.042 0-15.725 4.1257-3.6587 2.6467-3.6587 7.0838 0 4.0479 3.4252 6.9281 4.3593 3.6587 21.174 7.6287 16.814 3.9701 24.832 8.2515 8.0958 4.2036 12.611 11.599 4.5928 7.3174 4.5928 18.138 0 9.8084-5.4491 18.371-5.4491 8.5629-15.413 12.766-9.9641 4.1257-24.832 4.1257-21.641 0-33.239-9.9641-11.599-10.042-13.856-29.192z" />
      </g>
      <path d="m-915.5 274.15 326.96-326.96h-326.96z" fill="none" />
    </g>
    <g transform="matrix(.74732 .21451 -.21451 .74732 -1009.1 -840.85)" stroke-width="1.2862">
      <path transform="matrix(.32709 -.093889 .093889 .32709 -378.42 544.74)"
        d="m1132.9 55.543-105.28 59.529 0.012 0.0117c-41.121 21.749-73.657 59.575-87.564 108.03l-249.55 869.4c-27.129 94.512 27.118 192.44 121.63 219.57l869.4 249.55c45.802 13.147 92.335 7.0483 131.29-13.348l0.064 0.098 2.1309-1.1797c1.0215-0.5529 2.0344-1.1128 3.0449-1.6856l97.861-54.211-23.027-9.1582-15.018 7.8457c10.013-14.975 17.968-31.705 23.217-49.992l249.55-869.39c13.564-47.256 6.7836-95.368-15.201-135.05-21.985-39.687-59.174-70.949-106.43-84.514l-869.4-249.55c-25.828-7.4137-51.895-8.6838-76.719-4.7813l2.2051-2.6309 43.426-27.158 4.3457-11.367z"
        fill="#222" />
      <path
        d="m39.606 439.87h307.8c33.462 0 60.4 26.938 60.4 60.4v307.8c0 33.462-26.938 60.4-60.4 60.4h-307.8c-33.462 0-60.4-26.938-60.4-60.4v-307.8c0-33.462 26.938-60.4 60.4-60.4z"
        fill="#2f2f2f" style="paint-order:stroke fill markers" />
      <g transform="translate(583.88,-47.419)" stroke="#00b4ff" stroke-linecap="round" stroke-linejoin="round"
        stroke-width="12.862">
        <ellipse transform="rotate(120)" cx="802.78" cy="-12.729" rx="155.87" ry="54.885" fill="none"
          style="paint-order:stroke fill markers" />
        <circle cx="-390.37" cy="701.6" r="19.492" fill="#00b4ff" style="paint-order:stroke fill markers" />
        <ellipse transform="scale(-1)" cx="390.37" cy="-701.6" rx="155.87" ry="54.885" fill="none"
          style="paint-order:stroke fill markers" />
        <ellipse transform="rotate(240)" cx="-412.42" cy="-688.87" rx="155.87" ry="54.885" fill="none"
          style="paint-order:stroke fill markers" />
      </g>
    </g>
    <g transform="rotate(-13.029,-349.83,51.019)">
      <path transform="matrix(.21497 .15424 -.15424 .21497 -301.74 222.16)"
        d="m-1431.7-742.75-761.95 76.228-446.99-621.75 314.96-697.98 761.95-76.228 446.99 621.75z" fill="#953dac"
        style="paint-order:stroke fill markers" />
      <path d="m-670.52-259.48 175.37-101.25 175.37 101.25-175.17 101.14-175.56-101.14" fill="#68217a" />
      <path d="m-495.15-360.73 175.37-101.69 3e-5 202.94z" fill="#822c98" />
      <path transform="scale(.26458)"
        d="m-1871.4-1774.2a410.02 410.02 0 0 0-410.02 410.02 410.02 410.02 0 0 0 410.02 410.02 410.02 410.02 0 0 0 354.7-204.4l-174.63-100.83a208.37 208.37 0 0 1-180.07 103.57 208.37 208.37 0 0 1-208.37-208.37 208.37 208.37 0 0 1 208.37-208.37 208.37 208.37 0 0 1 180.61 104.48l174.43-101.15a410.02 410.02 0 0 0-355.04-204.98z"
        fill="#fff" style="paint-order:stroke fill markers" />
      <g transform="matrix(1.5551,0,0,1.5551,11.495,237.05)" fill="#fff" stroke-width=".64304">
        <rect x="-263.89" y="-408.33" width="12" height="47.573" style="paint-order:stroke fill markers" />
        <rect x="-242.72" y="-408.33" width="12" height="47.573" style="paint-order:stroke fill markers" />
        <rect transform="rotate(90)" x="-401.12" y="223.52" width="12" height="47.573"
          style="paint-order:stroke fill markers" />
        <rect transform="rotate(90)" x="-379.96" y="223.52" width="12" height="47.573"
          style="paint-order:stroke fill markers" />
      </g>
      <path d="m-670.52-259.48v28.282l175.56 101.36v-28.503l-175.56-101.14" fill="#5b126e" />
      <path d="m-494.96-129.84 175.37-101.25-0.19137-28.393-175.17 101.14v28.503" fill="#481855" />
    </g>
  </g>
</svg>