<?xml version="1.0" encoding="UTF-8"?>
<!-- Created with Inkscape (http://www.inkscape.org/) -->
<svg version="1.1" viewBox="0 0 135.56 135.56" xmlns="http://www.w3.org/2000/svg">
  <g transform="translate(41.232 -45.93)">
    <path
      d="m294.98 164.85c-2.4309-0.44619-3.5179-0.8054-5.7518-1.9008-5.8954-2.8908-10.21-8.7143-11.263-15.201-0.15113-0.93145-0.27569-5.5868-0.27678-10.345l-2e-3 -8.6517-17.418-0.159-1.1232-0.79375c-0.61773-0.43656-1.3719-1.27-1.6759-1.8521-0.54094-1.0358-0.55427-1.41-0.62473-17.545-0.0476-10.893 0.0221-16.836 0.2054-17.517 0.36465-1.3542 1.4415-2.601 2.7661-3.2027 0.96453-0.43813 1.8922-0.48628 9.4698-0.49152l8.4005-0.0058 2e-3 -19.116c1e-3 -11.944 0.1051-19.752 0.27678-20.81 0.63663-3.9236 2.547-7.7809 5.3236-10.749 2.7657-2.9566 5.9726-4.8942 9.972-6.0251 1.9866-0.56176 2.395-0.57266 24.463-0.65282 14.795-0.05374 22.951 0.0125 23.935 0.1944 2.0393 0.37699 4.4317 1.5438 6.8733 3.3521 2.5307 1.8743 25.828 24.992 28.495 28.274 2.3607 2.9062 3.4264 4.6216 4.1156 6.6249 0.51515 1.4973 0.52555 2.2983 0.52172 40.182-4e-3 42.106 0.0678 39.998-1.4976 43.813-2.4024 5.8554-7.1533 10.126-13.447 12.089l-2.3812 0.74247-33.734 0.0466c-26.841 0.0371-34.12-0.0243-35.623-0.30013zm68.167-10.31c0.94589-0.20281 2.2712-0.67924 2.945-1.0587 1.6578-0.93358 3.5555-3.0203 4.4157-4.8556l0.70909-1.5129 0.0687-35.983c0.0786-41.156 0.32377-37.195-2.3891-38.593-1.9392-0.99955-4.5273-1.1956-16.015-1.2132-9.4532-0.01445-9.5828-0.03115-11.124-1.4335-1.5071-1.3708-1.485-1.1828-1.6322-13.926-0.14719-12.739-0.16618-12.905-1.6625-14.507-1.3231-1.417-0.56372-1.3676-21.009-1.366-10.783 8.73e-4 -19.663 0.1106-20.537 0.25376-4.3315 0.70939-7.7124 3.9117-8.6135 8.1583-0.20419 0.96232-0.29749 7.2485-0.29749 20.042v18.64h31.758c28.066 0 31.872 0.04761 32.739 0.4095 1.3074 0.54628 2.145 1.3524 2.7362 2.6332 0.45824 0.99289 0.48881 2.0855 0.49426 17.669 5e-3 14.404-0.0486 16.741-0.40369 17.591-0.54628 1.3074-1.3524 2.145-2.6332 2.7362-1.0101 0.4662-2.5078 0.48871-32.874 0.49426l-31.816 6e-3v8.1891c0 5.0556 0.11383 8.7256 0.29749 9.5912 0.87543 4.1259 4.2997 7.4542 8.3757 8.1409 0.68679 0.11571 15.536 0.22232 32.999 0.23691 26.222 0.0219 32.049-0.0377 33.47-0.34223zm-91.678-36.168c1.802-0.46984 3.413-1.6839 4.2579-3.2088l0.76915-1.3882 0.0794-8.7974 0.0794-8.7974h-11.139v4.2333h5.0271v5.7147c0 4.6107-0.0791 5.8815-0.40963 6.5779-0.7152 1.5072-2.7798 2.0283-5.3881 1.3601-0.90936-0.23296-1.7628-0.42357-1.8966-0.42357s-0.24321 1.0643-0.24321 2.365v2.365l1.1245 0.14842c3.1716 0.41862 5.7517 0.36885 7.7391-0.14931zm20.872 0.16738c4.5795-0.97021 7.0304-3.4612 7.0304-7.1455 0-2.7235-1.2529-4.5705-3.8978-5.7458-0.62221-0.27649-2.3812-0.78515-3.9089-1.1303-3.9755-0.89829-4.6116-1.1448-4.8981-1.8984-1.0761-2.8305 5.6806-3.4176 9.8762-0.85813 1.9969 1.2182 2.0466 1.1725 2.0466-1.8833 0-2.6498-7.9e-4 -2.6527-0.7276-2.93-2.8201-1.0762-7.5482-1.5664-10.253-1.063-3.4424 0.64079-6.2098 2.6787-7.0102 5.1621-0.70224 2.179 0.20932 5.3196 1.9145 6.5961 1.4937 1.1182 2.5405 1.5209 5.9479 2.2884 1.8508 0.41689 3.6213 0.97564 4.0093 1.2653 0.95667 0.71427 0.93377 1.8137-0.0531 2.5497-0.64074 0.47784-1.1144 0.55732-3.3073 0.55495-2.9216-3e-3 -4.4494-0.42594-6.684-1.8497-0.78742-0.50168-1.5805-0.9152-1.7624-0.91892-0.24459-5e-3 -0.33073 0.73767-0.33073 2.8516v2.8583l1.823 0.58712c3.4107 1.0985 7.1269 1.3573 10.185 0.70944zm24.501-0.0172c5.6442-1.3303 8.5763-6.2263 7.9095-13.207-0.33952-3.5544-2.4424-6.9034-5.2268-8.3239-3.411-1.7402-8.5406-1.7957-12.083-0.13091-1.5738 0.73962-3.7477 3.0482-4.5247 4.8052-1.031 2.3312-1.3538 5.5583-0.82465 8.244 0.54476 2.7652 1.3174 4.3426 2.9058 5.9327 2.7033 2.706 7.3108 3.7486 11.844 2.6802zm-5.4253-4.4543c-1.2227-0.53277-2.4457-2.1114-2.9322-3.785-0.64345-2.2134-0.40809-5.5856 0.51732-7.4118 1.1975-2.3631 3.9128-3.3766 6.335-2.3645 1.0904 0.45562 2.4085 1.9522 2.8691 3.2579 0.46715 1.3242 0.46715 5.7327 0 7.0568-0.46061 1.3056-1.7786 2.8022-2.8691 3.2579-1.074 0.44874-2.8763 0.44357-3.9202-0.0113zm23.218-2.9187 0.0703-7.2562 8.9583 14.512h5.7261v-22.225h-5.5562v11.998l-7.5574-11.866-7.2592-0.14722v22.24h5.5479z" />
    <g>
      <path transform="matrix(.26458 0 0 .26458 256.83 29.812)"
        d="m-870.38 71.121a245.96 245.96 0 0 0-245.96 245.96 245.96 245.96 0 0 0 245.96 245.96 245.96 245.96 0 0 0 245.96-245.96 245.96 245.96 0 0 0-245.96-245.96zm0 6.7207a239.24 239.24 0 0 1 239.24 239.24 239.24 239.24 0 0 1-239.24 239.24 239.24 239.24 0 0 1-239.24-239.24 239.24 239.24 0 0 1 239.24-239.24z"
        stroke="#000" stroke-linejoin="round" stroke-width="20.409" style="paint-order:stroke fill markers" />
      <path d="m57.982 69.494-49.463 41.015h23.009l27.01-40.46z" />
      <path d="m22.747 118.29h23.12l-49.463 41.349-0.88922-1.0004z" />
    </g>
  </g>
</svg>