<?xml version="1.0" encoding="UTF-8"?>
<!-- Created with Inkscape (http://www.inkscape.org/) -->
<svg version="1.1" viewBox="0 0 182.3 116.91" xmlns="http://www.w3.org/2000/svg">
  <g transform="translate(302.98 126.82)">
    <g transform="matrix(1.5285 0 0 1.5285 132.27 13.159)" stroke="#000" stroke-linecap="square" stroke-width="2.5965">
      <rect x="-215.8" y="-38.294" width="14.561" height="6.2843" fill="#d0cccc"
        style="paint-order:stroke fill markers" />
      <rect x="-250.26" y="-80.723" width="83.476" height="42.905" rx="2.6" fill="#e0e0e0"
        style="paint-order:stroke fill markers" />
      <path
        d="m-247.55-90.28c-1.4364 0-2.5926 1.4598-2.5926 3.2734v43.224h83.244v-43.224c0-1.8136-1.1562-3.2734-2.5926-3.2734z"
        fill="#282b43" style="paint-order:stroke fill markers" />
      <rect x="-232.17" y="-32.012" width="47.129" height="7.1138" rx="3.748" fill="#e0e0e0"
        style="paint-order:stroke fill markers" />
    </g>
    <path
      d="m-221.5-98.798c-1.5686 0.12396-3.1597 0.44256-4.7131 0.69753-0.60377 0.0991-1.4712 0.0709-1.9779 0.44987-0.64786 0.48451-0.49649 1.4461-0.49649 2.1518v5.1844c0 0.67032-0.14111 1.5584 0.39995 2.0698 0.42028 0.39732 1.1805 0.37422 1.721 0.45423 1.295 0.1917 3.6971 0.0716 4.7982 0.77802 0.60116 0.38565 1.0363 2.1528 1.2915 2.825 0.26405 0.69542-0.34806 1.2505-0.74635 1.7674-0.82004 1.0642-2.3789 2.444-2.7017 3.7705-0.22065 0.90657 0.52473 1.6122 1.0614 2.2387 1.3476 1.5729 2.941 3.1395 4.5448 4.4506 0.87712 0.71698 1.6978 0.20891 2.4744-0.37069 1.142-0.85237 2.6097-2.5166 3.9726-2.9377 0.55827-0.17262 2.107 0.64899 2.6206 0.92648 0.60222 0.32544 0.62802 0.9735 0.71215 1.584 0.17344 1.2594 0.39826 2.5114 0.57383 3.7705 0.10427 0.74821 0.12678 1.612 0.95971 1.9025 0.67068 0.23377 1.536 0.10062 2.237 0.10062h4.4775c0.70379 0 1.6739 0.16096 2.153-0.48698 1.2995-1.7574 0.11818-4.8036 1.2656-6.55 0.37174-0.56581 1.9531-1.0133 2.5907-1.2224 0.65571-0.21492 1.1764 0.41688 1.6496 0.78615 1.1003 0.85862 3.3175 3.3983 4.831 2.7109 1.9623-0.89137 3.7617-3.1801 5.134-4.7818 0.48404-0.56499 1.2654-1.295 1.0323-2.1209-0.37893-1.3431-1.9635-2.6659-2.7932-3.7705-0.29362-0.39083-0.84977-0.90739-0.90409-1.4139-0.0701-0.65525 0.71946-2.108 1.041-2.6944 0.31649-0.57677 1.1042-0.50184 1.6745-0.59539 1.294-0.21233 2.5894-0.41841 3.8883-0.59857 0.60953-0.0845 1.3051-0.17474 1.5622-0.82656 0.23849-0.60494 0.0874-1.4783 0.0874-2.1192v-4.7131c0-0.69624 0.18499-1.6858-0.48416-2.1377-1.1639-0.78614-3.5614-0.6722-4.9359-0.89678-0.45647-0.0746-1.1216-0.0592-1.499-0.35207-0.57124-0.44339-1.2039-2.2523-1.3785-2.9561-0.13303-0.53669 0.56346-1.1621 0.86074-1.5518 0.84907-1.1126 3.268-3.1527 2.5953-4.7131-0.80747-1.8734-3.2319-3.6867-4.7025-5.0561-0.57394-0.5344-1.2592-1.2469-2.1209-1.0199-1.3192 0.34754-2.7988 1.9745-3.8883 2.7917-0.36491 0.2736-0.88866 0.84448-1.364 0.88466-0.59586 0.0503-1.7263-0.64005-2.2881-0.87912-1.396-0.59425-1.2662-4.0849-1.484-5.4406-0.11335-0.70627-0.1084-1.558-0.87488-1.8678-0.69507-0.28093-1.6196-0.13529-2.3548-0.13529h-4.5953c-0.76388 0-1.7334-0.10567-2.1244 0.71215-0.61859 1.2937-0.66855 3.1776-0.82715 4.5901-0.07 0.62292-0.0182 1.5909-0.60022 1.9766-0.52751 0.34954-2.1961 1.1729-2.8109 1.0051-1.2738-0.34759-2.7276-2.0172-3.7705-2.8228-0.48368-0.37361-0.99223-0.87825-1.6496-0.84807-0.70815 0.0325-1.3719 0.66174-1.8852 1.0943-1.3455 1.1336-2.6711 2.4878-3.7995 3.8366-0.50984 0.60941-1.3094 1.3696-0.98918 2.2387 0.47915 1.3002 1.9384 2.543 2.7707 3.6527 0.27825 0.37093 0.83958 0.88643 0.89956 1.364 0.11111 0.88442-0.96102 2.1877-1.1203 3.1135m18.146-2.6765c5.7921-0.68328 10.121 5.352 8.896 10.689-0.84977 3.7029-4.0568 6.1314-7.7178 6.5648-6.2384 0.73843-10.866-5.9508-8.8265-11.631 1.2093-3.3676 4.2468-5.2207 7.6482-5.6222z"
      fill="#79869c" fill-opacity=".60083" />
    <circle cx="-202.87" cy="-92.848" r="6.2091" fill="#fff" style="paint-order:stroke fill markers" />
    <path
      d="m-173.91-86.958c-1.0802 0.08536-2.1758 0.30476-3.2456 0.48034-0.41577 0.06824-1.0131 0.04882-1.362 0.30979-0.44613 0.33364-0.34189 0.99582-0.34189 1.4818v3.5701c0 0.4616-0.0972 1.0732 0.27541 1.4253 0.28942 0.2736 0.81291 0.2577 1.1851 0.31279 0.89179 0.13201 2.5459 0.04931 3.3042 0.53576 0.41397 0.26557 0.7136 1.4825 0.88935 1.9454 0.18183 0.47888-0.23968 0.86113-0.51396 1.2171-0.56469 0.73286-1.6381 1.683-1.8604 2.5965-0.15194 0.62428 0.36135 1.1102 0.73094 1.5416 0.92797 1.0831 2.0252 2.162 3.1297 3.0648 0.604 0.49373 1.1691 0.14386 1.7039-0.25527 0.7864-0.58696 1.7971-1.733 2.7356-2.023 0.38444-0.11887 1.4509 0.44691 1.8046 0.638 0.4147 0.2241 0.43247 0.67037 0.4904 1.0908 0.11944 0.86722 0.27425 1.7294 0.39515 2.5965 0.0718 0.51524 0.0873 1.1101 0.66088 1.3101 0.46185 0.16098 1.0577 0.06929 1.5404 0.06929h3.0833c0.48465 0 1.1527 0.11084 1.4826-0.33534 0.89489-1.2102 0.0814-3.3079 0.87152-4.5105 0.25599-0.38963 1.345-0.6978 1.784-0.84174 0.45154-0.148 0.81009 0.28707 1.136 0.54136 0.75768 0.59126 2.2845 2.3401 3.3267 1.8668 1.3513-0.61382 2.5904-2.1899 3.5354-3.2929 0.33332-0.38906 0.87135-0.8918 0.71085-1.4605-0.26094-0.9249-1.3521-1.8358-1.9235-2.5965-0.20219-0.26914-0.58517-0.62485-0.62257-0.97366-0.0483-0.45122 0.49543-1.4516 0.71686-1.8554 0.21794-0.39718 0.76036-0.34558 1.1531-0.41 0.89107-0.14622 1.7831-0.28813 2.6776-0.41219 0.41973-0.05819 0.8987-0.12033 1.0757-0.56919 0.16423-0.41658 0.0602-1.018 0.0602-1.4593v-3.2456c0-0.47945 0.12739-1.1609-0.3334-1.4721-0.80149-0.54136-2.4524-0.4629-3.399-0.61755-0.31433-0.05137-0.77236-0.04077-1.0322-0.24244-0.39337-0.30533-0.82901-1.551-0.94925-2.0356-0.0916-0.36958 0.38801-0.80027 0.59272-1.0686 0.58469-0.7662 2.2504-2.171 1.7872-3.2456-0.55604-1.29-2.2256-2.5387-3.2383-3.4817-0.39523-0.368-0.86714-0.85866-1.4605-0.70233-0.90844 0.23932-1.9273 1.3597-2.6776 1.9225-0.25129 0.18841-0.61195 0.58153-0.93927 0.6092-0.41032 0.03464-1.1888-0.44075-1.5756-0.60538-0.96133-0.40921-0.87192-2.813-1.0219-3.7465-0.0781-0.48635-0.0746-1.0729-0.60246-1.2862-0.47865-0.19346-1.1153-0.0932-1.6216-0.0932h-3.1644c-0.52602 0-1.1936-0.0728-1.4629 0.4904-0.42598 0.89085-0.46038 2.1882-0.5696 3.1609-0.0482 0.42896-0.0125 1.0955-0.41332 1.3612-0.36326 0.2407-1.5123 0.8077-1.9357 0.69215-0.8772-0.23936-1.8783-1.3891-2.5965-1.9438-0.33307-0.25728-0.68327-0.60478-1.136-0.584-0.48765 0.02238-0.94471 0.45569-1.2982 0.75355-0.92654 0.78066-1.8394 1.7132-2.6164 2.642-0.35108 0.41965-0.90171 0.94316-0.68117 1.5416 0.32996 0.89537 1.3348 1.7511 1.908 2.5153 0.19161 0.25543 0.57815 0.61042 0.61946 0.93927 0.0765 0.60903-0.66178 1.5065-0.77147 2.144m12.495-1.8431c3.9886-0.47052 6.9694 3.6855 6.126 7.3605-0.58517 2.5499-2.7936 4.2223-5.3146 4.5207-4.2959 0.5085-7.4827-4.0979-6.0781-8.0097 0.83273-2.319 2.9244-3.5951 5.2668-3.8716z"
      fill="#79869c" fill-opacity=".60083" />
    <circle cx="-161.08" cy="-82.86" r="4.2758" fill="#fff" style="paint-order:stroke fill markers" />
    <g transform="matrix(.84931 .23609 -.23609 .84931 -96.066 -100.9)">
      <g stroke="#050000" stroke-linecap="square">
        <rect x="-204.68" y="73.65" width="92.123" height="64.113" rx="5.8484" fill="#fff" stroke-width="3.9688"
          style="paint-order:stroke fill markers" />
        <path transform="scale(.26458)"
          d="m-751.48 278.36c-12.246 0-22.104 9.8578-22.104 22.104v26.301h348.18v-26.301c0-12.246-9.8578-22.104-22.104-22.104z"
          fill="#ee5858" stroke-width="15" style="paint-order:stroke fill markers" />
        <rect x="-200.59" y="77.374" width="59.198" height="5.3594" rx="1.0192" fill="#fff" stroke-width="2.2593"
          style="paint-order:stroke fill markers" />
      </g>
      <g fill="#ffb800" stroke="#050000" stroke-linecap="square" stroke-width="1.89">
        <circle cx="-118.13" cy="80.442" r="2.3972" style="paint-order:stroke fill markers" />
        <circle cx="-125.97" cy="80.303" r="2.3972" style="paint-order:stroke fill markers" />
        <circle cx="-133.8" cy="80.164" r="2.3972" style="paint-order:stroke fill markers" />
      </g>
      <g transform="scale(.87485 1.143)" fill="#282b43" stroke="#4e485e" stroke-linecap="round" stroke-linejoin="round"
        stroke-width="1.572" aria-label="&lt;/&gt;">
        <path
          d="m-173.1 90.145 16.791 6.9817v3.5607l-16.791 7.0166v-4.6079l10.368-4.1716-10.368-4.1541zm-1.344-5.5854-8.3781 29.341h-5.341l8.4304-29.341zm-15.063 23.144-16.791-6.9992v-3.5432l16.791-7.0166v4.6079l-10.368 4.1716 10.368 4.1541z"
          fill="#4e485e" stroke="#4e485e" stroke-linecap="round" stroke-linejoin="round" stroke-width="1.572" />
      </g>
    </g>
  </g>
</svg>