<?xml version="1.0" encoding="UTF-8" standalone="no"?>
<!-- Created with Inkscape (http://www.inkscape.org/) -->

<svg viewBox="0 0 661.45831 661.45831">
   <g id="layer1" transform="translate(491.23359,285.82337)">
      <g id="g838" transform="matrix(1.6536458,0,0,1.6536458,-491.23365,-285.82347)">
         <path id="path826" style="stroke-width:6.25" fill="#007acc"
            d="M -1856.6309,-1080.2773 V 169.72266 1419.7227 H 643.36914 v -2500 z M 31.341797,57.388672 c 44.683837,-0.04883 95.074223,4.052734 122.027343,11.083984 l -1.25,1.25 c 63.75,15 112.5,43.750004 156.25,89.375004 23.125,25 57.5,68.75 60,80 0,3.75 -108.125,76.875 -173.75,117.5 -2.5,1.875 -12.5,-8.75 -22.5,-25 -32.5,-46.25 -65.625,-66.25 -117.499999,-70 -74.999999,-5 -125,34.375 -125,100 0,20 3.75,31.25 11.25,47.5 16.874999,34.375 48.125002,55 145,97.5 178.749999,76.87499 256.249999,127.5 303.124999,200 53.125,81.24999 65,208.75 29.375,304.37504 -40,104.375 -137.5,175 -276.875,198.125 -43.749998,7.5 -143.7500003,6.25 -190.624999,-1.875 -100.000001,-18.75 -195.625001,-68.75 -254.375001,-133.125 -23.125,-25 -67.5,-91.87504 -65,-96.25004 l 23.75,-15 93.75,-54.375 70.625,-41.25 16.25,21.875 c 20.625,32.5 66.875001,76.25 93.750001,91.25 81.249998,41.87504 189.999999,36.25004 243.749999,-12.5 23.125,-21.25 33.125,-43.75 33.125,-75 0,-28.75 -4.375,-41.875 -18.75,-63.75 -20,-27.5 -60,-50 -172.499999,-100 -129.375001,-55 -184.375001,-90 -235.625001,-143.75 -29.375,-32.5 -56.25,-83.125 -68.75,-125 -9.375,-36.25 -12.5,-125 -3.75,-160.625 26.875,-125 121.25,-212.500004 256.250001,-237.500004 16.406249,-3.28125 41.1623537,-4.804687 67.972656,-4.833984 z M -869.13086,70.347656 c 240.625,0 438.75,0.625 438.75,2.5 2.5,1.25 2.5,46.875004 2.5,103.125004 v 100 h -325 v 925.00004 h -230.625 V 275.97266 h -325.00004 v -101.875 l 1.875,0.625 V 72.222656 Z"
            transform="matrix(0.16,0,0,0.16,297.06098,172.84443)" />
      </g>
   </g>
</svg>