<?xml version="1.0" encoding="UTF-8"?>
<!-- Created with Inkscape (http://www.inkscape.org/) -->
<svg version="1.1" viewBox="0 0 89.818 90.523" xmlns="http://www.w3.org/2000/svg">
  <g transform="translate(16.421 248.64)">
    <g stroke="#000">
      <path d="m62.973-186.79v16.839h-70.809v-16.695z" fill="#efead7" stroke-width="2.365" />
      <g transform="translate(18.804 25.125)" stroke-linecap="round">
        <rect x="-26.88" y="-268.8" width="69.951" height="21.378" fill="#efead7" stroke-linejoin="round"
          stroke-width="6.165" style="paint-order:stroke fill markers" />
        <path transform="scale(.26458)"
          d="m-91.197-1023.1c-38.766 0-38.803 92.088-0.20456 92.088h269.04c7.4043 0 7.363-11.447 0-11.447h-262.56c-28.672 0-28.636-69.193 0.25293-69.193h262.3c7.363 0 7.363-11.447 0-11.447z"
          fill="#3dc172" stroke-linejoin="round" stroke-width="23.301" style="paint-order:stroke fill markers" />
        <path d="m43.576-261.02h-39.676" fill="none" stroke-width="2.265" />
        <path d="m4.9784-256.1h-21.236" fill="none" stroke-width="2.265" />
      </g>
      <g transform="matrix(-1 0 0 1 38.482 52.06)" stroke-linecap="round">
        <rect x="-26.88" y="-268.8" width="69.951" height="21.378" fill="#efead7" stroke-linejoin="round"
          stroke-width="6.165" style="paint-order:stroke fill markers" />
        <path transform="scale(.26458)"
          d="m-91.197-1023.1c-38.766 0-38.803 92.088-0.20456 92.088h269.04c7.4043 0 7.363-11.447 0-11.447h-262.56c-28.672 0-28.636-69.193 0.25293-69.193h262.3c7.363 0 7.363-11.447 0-11.447z"
          fill="#3d87c1" stroke-linejoin="round" stroke-width="23.301" style="paint-order:stroke fill markers" />
        <path d="m43.576-261.02h-39.676" fill="none" stroke-width="2.265" />
        <path d="m4.9784-256.1h-21.236" fill="none" stroke-width="2.265" />
      </g>
      <g stroke-linecap="round">
        <path
          d="m-7.6094-192.13c-3.1738-0.0137-5.7288 2.555-5.7288 5.7288v16.108c0 3.1738 2.555 5.7237 5.7288 5.7288l72.642 0.1179c3.8966 6e-3 3.8966-4.2141-0.05911-4.2141l-67.472-0.27509c-3.2139-0.0131-5.8012-2.5873-5.8012-5.8012v-7.2202c0-3.2139 2.5873-5.8065 5.8012-5.8012l67.472 0.11115c3.9557 0 3.9557-4.1516 0.01981-4.1686z"
          fill="#f2a327" stroke-linejoin="round" stroke-width="6.165" style="paint-order:stroke fill markers" />
        <path d="m62.138-181.57h-34.799" fill="none" stroke-width="2.265" />
        <path d="m30.039-176.01h-29.178" fill="none" stroke-width="2.265" />
      </g>
      <g stroke-linecap="round" stroke-linejoin="round" stroke-width="2.765">
        <path d="m7.8919-175.73v16.228l6.0575-3.4975 6.058 3.4975v-16.228l-6.058 0.0558z" fill="#20bad3" />
        <path transform="matrix(-1 0 0 1 38.482 52.06)"
          d="m-12.188-255.77v16.228l6.0575-3.4975 6.058 3.4975v-16.228l-6.058 0.0558z" fill="#d32520" />
        <path d="m20.079-230.45v16.228l-6.0575-3.4975-6.058 3.4975v-16.228l6.058 0.0558z" fill="#d38720" />
      </g>
    </g>
  </g>
</svg>