<?xml version="1.0" encoding="UTF-8" standalone="no"?>
<!-- Created with Inkscape (http://www.inkscape.org/) -->

<svg viewBox="0 0 62.24868 70.34623" version="1.1" xmlns="http://www.w3.org/2000/svg">
   <defs id="defs2" />
   <g id="layer1" style="display:inline" transform="translate(-140.37393,-87.604928)" />
   <g id="layer2" transform="translate(-140.37393,-87.604928)">
      <path
         style="display:inline;fill:#953dac;fill-opacity:1;stroke:none;stroke-width:0.264583px;stroke-linecap:butt;stroke-linejoin:miter;stroke-opacity:1"
         d="m 142.31583,141.78867 27.86932,15.93649 c 0.93145,0.28518 2.00467,0.28091 2.9172,0.0139 l 27.54581,-15.83487 c 0.72085,-0.54474 1.43643,-1.43713 1.75214,-2.20548 l 0.22231,-33.04282 c -0.13783,-1.20272 -0.81245,-1.94022 -1.49334,-2.67229 L 172.83441,87.792652 c -0.65575,-0.240957 -1.95442,-0.259468 -2.67229,0 v 0 l -28.60924,16.741128 c -0.5273,0.54354 -1.06024,1.07578 -1.17895,2.4365 l 0.25445,32.3541 c 0.0475,0.50185 0.22094,0.97009 0.47078,1.37165 0.30589,0.49166 0.73994,0.78571 1.21667,1.09264 z"
         id="path869-9" />
      <path
         style="fill:#68217a;fill-opacity:1;stroke:none;stroke-width:0.264583px;stroke-linecap:butt;stroke-linejoin:miter;stroke-opacity:1"
         d="m 171.73405,122.92544 30.14393,17.40359 -1.22984,1.57516 -27.54579,15.83487 c 0,0 -1.81565,0.48635 -2.91722,-0.0139 -1.10157,-0.50026 -27.86931,-15.93649 -27.86931,-15.93649 0,0 -1.04821,-0.7087 -1.04821,-1.32004 z"
         id="path6917" />
      <path
         style="fill:#822c98;fill-opacity:1;stroke:none;stroke-width:0.264583px;stroke-linecap:butt;stroke-linejoin:miter;stroke-opacity:1"
         d="m 171.73405,122.92544 30.02399,17.56639 0.48506,-0.71452 0.22231,-33.04282 -0.56836,-1.25593 z"
         id="path12674" />
      <path id="path6708"
         style="fill:#ffffff;fill-opacity:1;stroke:none;stroke-width:0.264583px;stroke-linecap:butt;stroke-linejoin:miter;stroke-opacity:1"
         d="m 189.83269,116.51431 -0.38912,2.58433 h -2.00091 v 1.47278 l 1.66759,0.0832 -0.47233,3.22358 -1.83399,0.0279 0.0274,1.47278 h 1.41748 l -0.30591,2.55643 1.52858,0.0832 0.41651,-2.52852 2.77918,0.0279 -0.16693,2.52853 1.61179,-0.0553 0.33332,-2.55695 h 1.88979 l 0.0832,-1.38906 -1.52807,-0.0837 0.47231,-3.16776 1.61178,-0.0553 0.0274,-1.38958 -1.36118,0.0558 0.27752,-2.83445 -1.5839,-0.0279 -0.3333,2.63963 -2.75127,-0.1111 0.16693,-2.44533 z m 1.02783,4.27932 2.69597,0.0558 -0.63923,3.05666 -2.61226,-0.0832 z" />
   </g>
   <path
      style="fill:#ffffff;fill-opacity:1;stroke:none;stroke-width:0.264583px;stroke-linecap:butt;stroke-linejoin:miter;stroke-opacity:1"
      d="m 40.25966,30.171112 8.93779,-5.16955 c 0,0 -7.26604,-11.53097 -18.15171,-10.50921 0,0 -14.18091,-0.41115 -19.49256,14.2123 -0.50885,1.40092 -0.66625,2.00124 -0.96185,3.72122 -0.0392,0.22798 -0.17067,1.34293 -0.18647,1.5961 0,0 -0.0257,0.41373 -0.0386,1.04438 -0.0856,4.1924 2.08365,19.9322 20.16848,20.88582 0,0 11.72959,0.74868 18.48892,-10.29418 l -8.80173,-5.14982 c 0,0 -4.22471,6.01238 -10.04087,5.18712 0,0 -9.53397,-0.62843 -9.50784,-10.83009 0,0 -0.008,-0.20394 0.0145,-0.53537 0.13007,-1.91766 1.65655,-9.17564 10.633,-9.5806 0,0 4.99089,-0.44702 8.76354,5.17265 z"
      id="path4332" />
</svg>