<?xml version="1.0" encoding="UTF-8"?>
<!-- Created with Inkscape (http://www.inkscape.org/) -->
<svg version="1.1" viewBox="0 0 456.8 396.1" xmlns="http://www.w3.org/2000/svg">
  <g transform="translate(-1069.1 240.06)" fill="#fff">
    <path
      d="m832.54 249.72c-0.5183-0.27325-2.4024-2.1049-2.9406-2.8588-0.4778-0.6691-0.6574-1.3373-1.0043-3.7366-0.4064-2.81-0.9136-4.7627-3.1869-12.269-1.0903-3.6-3.3646-11.185-5.054-16.856-3.6245-12.166-5.4561-18.243-7.4018-24.56-9.1664-29.757-17.083-50.986-26.072-69.914-3.6086-7.5983-10.616-20.094-21.926-39.099-6.7935-11.416-7.1978-12.097-8.6047-14.495-2.272-3.8734-4.1059-6.6931-4.2824-6.584-0.2167 0.13396-0.4798 1.7937-0.4767 3.0071 0 1.661 0.1581 2.3442 1.4084 6.2586 2.8119 8.8039 4.5912 15.287 6.1994 22.588 1.8656 8.4694 4.1303 15.794 7.7904 25.197 0.6077 1.5611 1.1481 3.0243 1.2009 3.2516 0.1432 0.61644 0.3103 2.6411 0.4487 5.437 0.2524 5.0979 0.2956 5.4404 1.5109 11.99 1.1749 6.3326 1.4716 8.4976 1.2807 9.347-0.1204 0.53599-0.2679 0.6695-0.7422 0.67205-0.481 3e-3 -1.2822-0.87752-2.8509-3.132-2.2024-3.1652-2.99-4.159-4.4551-5.6215-1.5867-1.5838-2.4715-2.1741-4.0721-2.7168-1.4504-0.49171-2.7398-0.69222-4.4403-0.69046-2.5277 3e-3 -4.5391 0.58629-6.5765 1.9083-1.7564 1.1398-2.6437 2.1703-5.2191 6.0618-4.2816 6.4695-6.0887 8.7373-8.6975 10.915-1.5307 1.2777-2.4762 1.9074-4.6018 3.065-2.1454 1.1684-2.7203 1.5671-3.5172 2.439-1.1071 1.2113-1.2923 2.2527-0.9572 5.3825 0.3511 3.279 0.3841 4.0813 0.2478 6.0241-0.6751 9.627-4.4011 16.594-11.343 21.209-2.5017 1.6632-4.6783 2.607-9.8588 4.2748-10.145 3.266-11.209 3.6626-15.929 5.9396-6.3845 3.0799-8.6386 4.0245-11.678 4.8937-1.9781 0.56571-3.0784 0.77978-7.4014 1.44-5.7613 0.87993-7.4934 1.3216-9.9987 2.5496-3.1104 1.5246-5.0433 3.0886-8.7629 7.0904-4.3826 4.715-6.3882 6.5588-8.2166 7.5534-1.6652 0.90584-2.9354 0.99662-3.9601 0.28303-0.6609-0.46031-0.4468-0.986 1.8063-4.4345 3.3966-5.1987 4.9187-8.2249 5.8143-11.559 0.7144-2.6597 0.8265-4.2066 0.9798-13.522 0.1539-9.3507 0.2945-12.967 0.6463-16.621 0.5127-5.3278 0.871-7.0196 2.092-9.8782 0.716-1.6763 1.4687-3.0023 3.113-5.4841 1.6009-2.4164 2.218-3.5683 2.7444-5.1227 0.31-0.9157 0.3687-1.2793 0.4157-2.5772 0.069-1.9035-0.1596-2.9209-1.0657-4.7448-1.0654-2.1445-2.1933-3.5029-7.5125-9.0471-1.2599-1.3131-3.1722-3.4428-4.2496-4.7326-2.4674-2.9538-4.8614-5.5128-6.8535-7.3259-6.8097-6.1979-11.133-8.037-22.809-9.7029-12.517-1.7859-22.101-2.0136-29.618-0.70375-3.318 0.57821-4.506 0.92792-11.682 3.4388-8.2191 2.8759-12.248 3.9353-15.06 3.9598-1.9394 0.0169-2.5625-0.29429-2.2217-1.1097 0.0871-0.20852 0.72696-1.0065 1.4218-1.7733 0.69486-0.76681 1.4763-1.653 1.7366-1.9694 2.3155-2.8145 3.5166-6.4609 3.0695-9.319-0.47402-3.0304-2.1277-5.1815-6.2073-8.0742-3.7773-2.6784-7.5498-4.4986-10.9-5.2593-1.1063-0.25118-1.37-0.2612-7.2878-0.27713-6.4815-0.0174-7.144-0.0585-10.484-0.64917-3.4519-0.61045-7.0378-1.7584-10.968-3.5113-1.6081-0.71722-5.2987-2.5706-8.7842-4.4113-1.5929-0.84125-3.6685-1.8863-4.6125-2.3223-1.0035-0.46348-1.917-0.97085-2.1995-1.2216-0.41881-0.37166-0.48133-0.48861-0.46916-0.87786 8e-3 -0.24698 0.14694-0.81399 0.30943-1.26 1.482-4.0676 1.6334-4.6962 1.6182-6.7192-0.0118-1.5564-0.2357-2.6152-0.83113-3.9284-1.2539-2.7654-4.2826-5.7162-9.281-9.0423-5.3563-3.5643-11.397-6.5538-21.644-10.712-4.3981-1.7845-5.0736-2.0896-6.7002-3.0266-2.1338-1.2292-3.5941-2.4302-3.4408-2.8299 0.035-0.0908 0.2508-0.22692 0.47997-0.30254 0.60235-0.19881 4.3772-0.0663 8.2514 0.28969 5.9208 0.54401 8.2158 0.67962 11.585 0.68458 2.827 4e-3 3.5348-0.0313 4.9235-0.24624 4.8681-0.75366 9.6804-2.488 14.713-5.3026 3.0671-1.7154 8.6513-5.35 11.469-7.4649 6.0641-4.5516 9.9087-9.9311 11.413-15.97 0.43185-1.7336 0.73099-3.8168 0.66973-4.6638-0.0962-1.3307-1.2491-2.6514-4.7842-5.481-2.1827-1.7471-2.9541-2.4737-2.9541-2.7825 0-0.32049 0.14716-0.52721 0.55449-0.77896 0.87058-0.53805 2.0893-0.3065 5.669 1.0771 5.5948 2.1625 8.7016 2.9253 15.961 3.9188 7.8407 1.073 13.164 1.4446 20.737 1.4475 5.344 2e-3 7.0855-0.0721 10.948-0.46614 7.2611-0.74082 13.611-2.3835 18.282-4.7292 3.7818-1.8993 8.1274-5.0459 11.211-8.1175 8.1308-8.0995 10.113-17.119 5.7157-26.005-0.9018-1.8221-1.8896-3.3567-3.7936-5.8935-3.7907-5.0509-6.3961-9.0488-8.1293-12.474-1.2044-2.3804-1.4494-3.1673-1.4431-4.6339 4e-3 -0.93311 0.0697-1.3726 0.33762-2.259 0.59916-1.982 0.43685-3.1808-0.75349-5.5656-1.4341-2.8732-3.7886-5.6528-7.4089-8.7466-0.669-0.57173-2.6761-2.1931-4.4601-3.6031-1.7841-1.4099-3.739-2.9927-4.3443-3.5173-1.2732-1.1033-2.0776-1.6415-6.6613-4.4558-9.0617-5.564-12.454-8.1851-12.454-9.6238 0-0.48927 0.29073-0.72423 1.0756-0.86932 1.4361-0.26548 4.2725 0.23752 10.509 1.8637 1.851 0.48262 2.5014 0.60108 3.6009 0.65576 4.3421 0.21594 8.3435-1.6376 10.398-4.8167 1.4745-2.2813 2.8241-7.7398 3.4267-13.858 0.46031-4.6742 0.48199-7.0692 0.19717-21.779-0.11906-6.149-0.20934-7.7441-0.55353-9.778-0.40813-2.4116-0.10259-3.0651 2.8461-6.0869 2.3554-2.4139 2.718-2.9353 3.1614-4.5458 0.21416-0.77777 0.24883-1.207 0.24643-3.0484-4e-3 -2.4129-0.11722-3.4383-0.96647-8.6886-0.85302-5.2731-0.95951-6.204-0.96761-8.4569-6e-3 -1.5683 0.039-2.2109 0.19634-2.8383 0.43294-1.7244 1.2027-2.8383 1.9614-2.8383 0.79728 0 2.2582 1.346 5.5324 5.0973 5.7836 6.6263 8.8594 9.3992 12.407 11.186 3.5787 1.8022 8.2606 2.8316 12.879 2.8316 3.5782 0 6.4779-0.51292 8.6192-1.5247 0.8955-0.4231 1.1436-0.80203 1.6533-2.5258 0.364-1.2312 0.6069-1.742 0.8284-1.742 0.068 0 1.122 0.95926 2.3432 2.1317 5.5994 5.3756 15.401 13.587 20.766 17.398 4.7723 3.3893 9.5573 5.9761 14.239 7.698 5.0176 1.8453 10.447 2.6933 13.684 2.1371 4.2964-0.73828 7.4301-3.2588 10.62-8.5417 1.2975-2.1491 3.5484-6.7832 4.881-10.049 1.5101-3.7007 2.4938-5.7623 3.0113-6.311 0.4548-0.48223 0.5677-0.49824 0.9335-0.13242 0.5641 0.56411 0.7905 1.9193 1.2796 7.6598 0.5409 6.3482 1.0488 10.664 1.8507 15.725 0.8842 5.5804 1.9091 8.923 4.0055 13.063 1.1474 2.2662 2.0436 3.7626 4.6829 7.8197 2.441 3.7523 2.5624 3.9562 3.1386 5.2711 1.0399 2.373 1.6526 4.6002 2.8336 10.301 1.4326 6.9152 2.3466 9.5503 4.3232 12.463 2.427 3.577 5.7202 5.2769 9.5254 4.9169 2.0606-0.19494 3.8138-0.74552 6.3041-1.9796 2.0997-1.0405 3.541-1.9291 6.5525-4.0395 7.4341-5.2096 14.817-11.17 22.236-17.953 5.6423-5.1584 17.175-17.182 20.801-21.687 2.5511-3.1689 3.3421-4.8316 4.6419-9.7568 1.859-7.0441 2.2451-8.2333 2.7544-8.4851 0.5939-0.29365 1.0982 0.11835 2.7863 2.2762 3.8389 4.9073 7.2731 6.5058 13.618 6.3384 2.2647-0.0598 3.3625-0.20684 5.4449-0.7295 10.267-2.5769 22.005-12.15 28.612-23.334 1.0734-1.8171 1.6234-2.6122 2.3113-3.3418 0.668-0.70841 1.0609-0.94456 1.5717-0.94456 0.8518 0 1.2627 1.0874 1.3568 3.5915 0.074 1.9775-0.059 3.5129-0.6084 7.0262-0.9286 5.934-1.3342 10.066-1.346 13.71-0.012 3.8423 0.3535 6.0585 1.3006 7.879 0.4737 0.91046 0.8087 1.3423 2.2477 2.8968 1.3019 1.4066 1.7701 2.6516 1.8793 4.9977 0.082 1.755-0.025 2.8415-0.7743 7.8595-0.9834 6.588-1.1591 8.3652-1.1592 11.724 0 5.3245 0.9615 8.6077 3.2239 11.006 1.5378 1.6301 3.5376 2.6431 6.1597 3.1201 1.1248 0.20465 5.5006 0.2046 6.7771-6.6e-5 0.5097-0.08173 2.3604-0.42854 4.1126-0.77069 4.3306-0.84563 5.595-1.0231 7.3563-1.0325 1.7592-0.0094 2.4483 0.14785 3.023 0.68987 0.3593 0.33876 0.3945 0.4312 0.3945 1.033 0 1.6498-1.4469 4.5316-3.668 7.3052-1.3055 1.6304-1.9075 2.2802-6.1755 6.6661-6.8598 7.0492-7.367 7.7699-10.434 14.824-3.2566 7.4908-4.6813 10.318-6.9117 13.717-1.3231 2.0163-2.3791 3.393-4.6857 6.1088-4.9533 5.832-6.9063 8.7025-7.8712 11.569-0.4366 1.2967-0.5764 2.9315-0.3382 3.9541 0.3439 1.4767 1.473 2.9938 2.9999 4.0307 1.4243 0.96724 12.289 6.5315 16.869 8.639 15.763 7.2541 29.506 10.631 42.053 10.333 3.0455-0.0723 3.6379-0.14919 7.251-0.9412 3.7754-0.82756 5.0126-0.90521 5.8171-0.36508 0.5027 0.33751 0.5566 0.86192 0.1442 1.4026-0.3644 0.47772-2.1215 1.6545-3.7707 2.5253-0.669 0.35328-2.9107 1.4329-4.9815 2.3992-4.6284 2.1598-6.7944 3.3064-13.844 7.3288-6.0407 3.4468-8.2332 5.1194-16.219 12.373-7.3199 6.6488-10.487 8.9966-16.045 11.896-3.2407 1.6904-6.6352 3.1777-16.392 7.1823-6.8763 2.8221-9.2573 3.9058-13.728 6.2483-2.8954 1.517-5.0827 2.4733-14.134 6.1787-8.534 3.4939-11.806 5.2991-12.995 7.1703-0.2896 0.45559-0.3274 0.6227-0.3272 1.4481 0 2.2309 0.6162 4.4679 2.914 10.585 1.6189 4.3096 1.7922 4.8501 2.6496 8.2625 1.3075 5.2037 1.8505 8.0912 1.8505 9.8406 0 1.186-0.1288 1.6804-0.4657 1.7873-0.6142 0.19495-1.5621-0.69458-4.6299-4.345-1.2584-1.4973-2.839-3.2529-3.5125-3.9013l-1.2245-1.1789-5.4811-2.7466c-8.4429-4.2307-8.7726-4.4287-13.641-8.1933-7.9335-6.1346-11.098-8.862-15.709-13.539-2.2492-2.2813-2.7976-2.9167-4.6108-5.3423-3.4767-4.6511-5.3751-6.3364-6.8302-6.0634-0.3937 0.0738-0.408 0.0958-0.555 0.85489-0.3451 1.7808-0.052 3.9426 0.8192 6.0502 0.5498 1.3293 2.6255 5.204 7.416 13.844 9.0138 16.257 13.123 23.887 18.223 33.843 5.6481 11.025 11.268 23.06 14.326 30.682 5.2062 12.975 9.1892 24.255 17.978 50.917 7.4453 22.586 10.738 32.094 15.225 43.964l1.1386 3.012 0.9323 0.92678c0.5365 0.53326 1.4243 1.2414 2.0909 1.6676 2.5008 1.5992 3.0797 2.0191 3.6852 2.6731 0.8707 0.9405 1.2383 1.7144 1.2383 2.6072 0 0.90466-0.1323 1.0861-1.3765 1.8872-1.7029 1.0965-2.784 1.9808-4.7055 3.8488-1.7547 1.7058-2.4221 2.2092-2.9137 2.1974-0.1178-3e-3 -0.419-0.1131-0.6693-0.24507z" />
    <path
      d="m1369.9 153.22c-1.9527-3.955-4.5131-9.5898-5.6467-12.427-0.9443-2.3633-1.7568-3.7593-4.5931-7.8915-1.0622-1.5476-2.5917-3.9567-3.399-5.3537-0.8072-1.397-2.4412-4.137-3.631-6.089-1.1899-1.952-2.4247-4.0093-2.744-4.5717-1.3793-2.4296-2.0384-3.4959-2.8015-4.5326-1.2776-1.7358-3.3126-4.0506-5.0035-5.6914-3.4762-3.3735-4.1412-4.071-4.7042-4.9347-0.3235-0.49627-1.1479-1.4902-1.8322-2.2087-0.7391-0.77619-1.6013-1.8504-2.1243-2.6468-1.7307-2.6357-4.7914-7.9576-6.2564-10.879-0.3723-0.74218-0.7044-1.3494-0.738-1.3494-0.033 0 0.075 0.26889 0.2417 0.59754 0.4172 0.82338 0.3829 0.85176-0.2086 0.17238-1.2246-1.4068-4.6837-4.9428-6.4311-6.5744-4.2448-3.9633-7.3063-5.8236-11.224-6.82-1.9905-0.50622-2.3305-0.60762-3.6695-1.0945-0.566-0.20585-0.8896-0.24927-1.4998-0.2012-0.4516 0.0356-1.108-9e-3 -1.5641-0.10532-0.4322-0.0917-1.0723-0.16757-1.4223-0.16871-0.3935-2e-3 -0.8149-0.0931-1.104-0.24062-0.2571-0.13118-0.7828-0.27404-1.1682-0.31746-0.3853-0.0434-0.8604-0.15968-1.0557-0.25833-0.5897-0.29793-1.8667-0.1141-3.9523 0.56899-1.0056 0.32936-3.0467 0.92256-4.5359 1.3182-1.4892 0.39567-2.8998 0.79971-3.1347 0.89786-0.8878 0.37096-4.7707 2.5187-5.3705 2.9705-0.3441 0.25927-0.8816 0.55831-1.1945 0.66453-1.3669 0.46406-2.4644 1.4938-4.5237 4.2441-2.0959 2.7992-3.5404 4.5326-5.2853 6.3419-1.9045 1.9749-2.1099 2.4459-2.8655 6.5733-0.6438 3.5159-1.7005 7.0957-2.8511 9.6579-1.4452 3.2185-4.4611 8.2196-5.9247 9.8246-0.5572 0.61096-0.7309 0.88813-0.7309 1.166 0 0.30135-0.2138 0.57986-1.2332 1.6067-1.2624 1.2716-2.1959 2.4848-3.2085 4.1696-0.8117 1.3506-2.5799 6.3903-3.8044 10.844-0.2821 1.0256-0.9819 3.2182-1.5552 4.8725s-1.4942 4.4965-2.0465 6.3162c-1.4469 4.7673-2.8268 9.4418-3.0542 10.346-0.1476 0.58712-0.2468 0.77822-0.3979 0.76684-0.1186-9e-3 -0.2307 0.10222-0.273 0.2707-0.1119 0.4457-0.4059 0.34816-0.4984-0.16531-0.1428-0.79279-1.2489-5.4838-1.4256-6.0455-1.4569-4.6326-2.1096-6.7926-2.7812-9.2036-0.4424-1.5881-1.0476-3.5635-1.3449-4.3899-0.8605-2.3917-4.4332-9.9485-6.5034-13.756-0.9992-1.8376-1.3255-2.3214-2.2513-3.3382-0.5956-0.65401-1.3345-1.3781-1.6422-1.609-0.6532-0.49044-0.9481-0.93109-1.3659-2.0409-0.458-1.217-0.8568-1.9427-1.2288-2.2364-0.3254-0.25686-0.3917-0.26195-2.339-0.17901-1.7993 0.0766-2.0411 0.0634-2.3661-0.12847-0.6945-0.41024-1.854-2.8637-2.9534-6.2493-0.6485-1.9968-0.6453-1.983-1.2843-5.5943-0.2837-1.6036-0.7002-3.4781-0.9623-4.3311-0.558-1.8159-0.8586-3.0015-1.2025-4.7416-0.3319-1.6805-1.3726-4.6581-2.274-6.5071-0.3871-0.79403-0.9521-1.958-1.2556-2.5866-0.7013-1.4527-1.7378-2.8211-3.4691-4.5793-2.0871-2.1198-3.8729-3.2221-7.1717-4.4272l-1.3628-0.49784-4.7127 2e-3c-5.9334 2e-3 -6.3806 0.0815-10.848 1.9188-2.0359 0.83716-3.0876 1.3746-5.5943 2.8588-0.9595 0.5681-2.0336 1.2004-2.3869 1.4051-0.3532 0.20471-1.2465 0.85256-1.9851 1.4397-0.7384 0.5871-1.5863 1.2332-1.8841 1.4358-0.2977 0.20259-1.1003 0.8506-1.7835 1.44-0.6831 0.58944-1.2604 1.0532-1.2828 1.0305-0.023-0.0227 0.087-0.34327 0.2426-0.71245 0.1559-0.36919 0.5273-1.7522 0.8255-3.0734s1.0897-4.6734 1.7591-7.4495c1.8858-7.822 3.8761-16.269 4.6809-19.867l0.7315-3.2699v-2.0649c0-1.8888 0.02-2.0912 0.2427-2.3735 0.3675-0.46718 0.5891-1.3892 0.7168-2.9818 0.063-0.79176 0.3276-2.5223 0.587-3.8457 0.2594-1.3234 0.5368-2.8122 0.6163-3.3085 0.08-0.49627 0.279-1.4416 0.4432-2.1008 0.7573-3.0408 1.2804-6.3426 1.7258-10.892 0.3263-3.3343 0.5539-4.612 1.4981-8.4105 0.4266-1.7162 0.8895-3.869 1.0288-4.7839 0.1393-0.91496 0.3108-1.826 0.3811-2.0245 0.07-0.19851 0.2846-0.7867 0.4761-1.3071 0.5291-1.4375 0.7096-2.7389 0.837-6.0317 0.1847-4.7748-0.258-7.7461-1.6477-11.059-0.7277-1.7349-1.4442-2.6941-2.7307-3.6557-2.6858-2.0075-5.2791-3.3643-8.4736-4.4333-2.7449-0.9186-4.7157-1.1406-7.9122-0.89116-3.5297 0.27542-9.4368 1.2861-10.607 1.8149-3.111 1.4055-9.1928 3.8478-9.5816 3.8478-0.1565 0-0.8211 0.16114-1.477 0.35806-0.6559 0.19694-1.4235 0.39269-1.7057 0.43501-0.2822 0.0423-0.5648 0.16543-0.628 0.27356-0.063 0.10813-0.1164 0.13785-0.1185 0.066-0.01-0.32673 5.1567-7.7264 9.4836-13.585 7.8535-10.633 14.838-19.615 18.664-24.001 1.866-2.1394 2.6235-3.097 5.9012-7.4591 2.8412-3.7813 4.5471-5.8748 6.4284-7.8888 1.0052-1.0761 1.7582-1.7118 3.9186-3.3085 5.2061-3.8475 7.6423-5.8514 9.8143-8.0724 2.4779-2.5338 2.8689-3.2582 4.0149-7.4387 1.1902-4.3417 2.5378-6.204 5.5948-7.7315 1.8718-0.93523 6.7249-2.3145 11.489-3.2653 6.2731-1.2518 12.16-1.8808 19.851-2.1209 2.2167-0.0692 4.5446-0.17768 5.1732-0.24111 2.5415-0.25643 2.9995-0.27069 3.7277-0.11614 0.4013 0.0851 0.7617 0.12276 0.8009 0.0835 0.039-0.0392 0.097-0.30404 0.1294-0.58854 0.054-0.48728 0.037-0.52521-0.3081-0.65461-0.2628-0.0986-0.3949-0.2486-0.4682-0.53147-0.056-0.21676-0.2082-0.45272-0.3377-0.52435-0.1295-0.0716-0.2847-0.20838-0.3448-0.30394-0.3437-0.54632-1.1177-1.2216-1.6146-1.4086-0.3091-0.11629-0.6282-0.30216-0.7091-0.41306-0.081-0.11088-0.3739-0.29232-0.651-0.40319-0.277-0.11087-1.5101-0.99903-2.7402-1.9737-4.1874-3.318-7.8338-6.0295-12.402-9.2226-1.2241-0.85557-2.9836-2.1842-3.9099-2.9525-4.1959-3.4798-8.9831-7.1503-13.234-10.147-1.1911-0.83956-2.6799-1.9641-3.3085-2.499-1.127-0.95906-3.3501-2.6454-7.1993-5.4612-1.0812-0.79096-2.543-1.8997-3.2483-2.4639-0.7053-0.5642-1.7426-1.3466-2.305-1.7386-4.1208-2.8724-11.835-8.7882-13.884-10.647-3.0783-2.7927-4.416-3.9523-5.8464-5.0678-0.761-0.59346-2.1144-1.7326-3.0077-2.5314-1.9131-1.7108-4.6786-3.8187-6.617-5.0435-1.8621-1.1767-3.1985-2.2154-6.1958-4.8161-1.3896-1.2057-2.9054-2.4932-3.3686-2.8613-2.1648-1.7201-4.3079-3.6704-7.82-7.1164-6.3461-6.2267-17.367-15.281-25.626-21.053-0.794-0.55493-2.4453-1.8265-3.6694-2.8258-10.163-8.2957-15.566-12.258-22.437-16.451-3.7999-2.3191-4.4919-2.6958-5.2334-2.8481-0.9398-0.19305-2.8602-1.1763-4.2979-2.2004-0.6764-0.48189-1.5675-1.0656-1.9801-1.2972-0.447-0.25084-1.3423-0.99021-2.2145-1.8288-0.9149-0.87963-1.5937-1.4367-1.8095-1.485-0.6805-0.15226-0.8275-0.21287-0.9619-0.39655-0.1228-0.16799-0.1652-0.16743-0.4293 6e-3 -0.2908 0.19052-0.3067 0.17871-2.0328-1.5105-0.9569-0.9364-1.9686-1.9101-2.248-2.1638l-0.5082-0.4613 5e-4 -0.98239c4e-4 -1.0201-0.015-0.97578 0.7508-2.1142 0.1154-0.17154 0.2102-0.41296 0.2105-0.53646 5e-4 -0.17234 0.068-0.21168 0.2906-0.16913 0.218 0.0416 0.322-0.0147 0.4184-0.22638 0.2239-0.49134 1.3915-1.1412 2.1786-1.2126 0.604-0.0548 0.7751-0.0184 1.3288 0.28298 0.3494 0.19022 1.168 0.85231 1.8191 1.4713 1.0049 0.95548 1.1837 1.1822 1.1837 1.501 0 0.30238 0.1402 0.50905 0.72 1.0607 0.396 0.37683 1.0592 0.88732 1.4737 1.1344 0.4146 0.24709 0.8891 0.56936 1.0546 0.71615 0.1654 0.1468 0.7007 0.52735 1.1897 0.84569 0.5109 0.33265 1.0225 0.77976 1.2031 1.0514 0.4221 0.6352 0.6669 0.86312 1.5172 1.4123 0.3969 0.25646 1.2361 0.93567 1.8647 1.5094 0.6287 0.57369 1.4554 1.2764 1.8373 1.5617 0.3818 0.28523 1.1939 1.0167 1.8046 1.6256 2.131 2.1246 3.3542 3.1212 10.915 8.8931 2.2828 1.7426 6.3874 4.9056 9.1213 7.0288 2.7339 2.1232 5.5147 4.2664 6.1794 4.7626 5.02 3.7476 11.962 8.9021 13.155 9.7677 0.7925 0.57497 2.3682 1.9014 3.5016 2.9475 4.6243 4.2683 7.14 6.5618 8.1783 7.4556 0.6025 0.51875 1.7665 1.5592 2.5865 2.3122 1.8618 1.7094 3.5048 3.0671 5.7683 4.7667 0.9694 0.72786 2.3885 1.8982 3.1534 2.6008 2.6487 2.4324 7.6892 6.6679 9.2693 7.7887 5.1527 3.6553 10.369 7.811 18.731 14.922 4.8322 4.1095 10.638 8.7853 13.848 11.153 1.0849 0.80024 2.893 2.1844 4.0178 3.0758 3.5265 2.7947 4.9273 3.8269 9.4442 6.9597 4.9888 3.46 8.7308 6.1275 11.79 8.4047 4.697 3.4961 12.656 8.9386 18.857 12.895 1.2021 0.76698 1.5931 1.0775 1.594 1.266 0 0.32099 0.4419 0.7309 0.9036 0.84149 0.1986 0.0475 0.6129 0.31954 0.9208 0.60444 0.7332 0.67838 1.713 1.2763 2.3877 1.4571 0.3032 0.0812 1.309 0.14573 2.2858 0.14656l1.7445 2e-3 0.5771-0.83655c0.5083-0.73708 0.5974-0.96302 0.749-1.9003 0.407-2.5163 2.751-9.391 5.6478-16.565 2.0746-5.1377 1.9632-4.9264 5.9997-11.369 1.503-2.399 2.8986-4.5025 4.0307-6.0755 2.2983-3.1933 5.5272-6.8069 7.8902-8.8304 1.2022-1.0294 14.664-11.548 21.304-16.646 2.3159-1.7781 4.7251-3.6538 5.3537-4.1682 1.932-1.5808 3.7986-2.9177 7.7215-5.5301 5.4024-3.5977 7.0687-4.8651 9.663-7.3502 1.6474-1.5781 3.2454-2.908 7.1583-5.9578 3.4962-2.725 4.4576-3.502 6.3162-5.1043 4.865-4.1946 8.6488-8.3473 12.728-13.969 0.3113-0.42906 0.2087-0.22523-0.6677 1.3263-2.7784 4.9186-4.8579 10.295-5.4448 14.076-0.046 0.29777-0.2939 1.2421-0.5506 2.0985-1.036 3.4576-1.5535 6.3922-1.5535 8.8096 0 2.6716 0.4087 3.5969 1.816 4.1113 2.5272 0.92379 3.8009 1.1019 8.4703 1.1844 3.417 0.0604 3.8556 0.0447 5.2334-0.18691 0.8271-0.13906 2.5866-0.36442 3.91-0.50078 1.3234-0.13637 2.731-0.29824 3.128-0.35972 0.397-0.0615 1.5069-0.19354 2.4663-0.29345 2.5198-0.26241 10.116-1.32 13.896-1.9346 1.7865-0.29052 4.683-0.72243 6.4365-0.95982 7.9098-1.0708 13.289-2.0616 19.644-3.6186 1.47-0.36009 4.8653-1.061 7.5451-1.5576 8.8902-1.6474 12.876-2.5489 16.392-3.7075 0.9213-0.30361 2.334-0.6587 3.1882-0.80142 1.7297-0.28904 3.4634-0.65162 7.7295-1.6166 1.6211-0.3667 3.0652-0.66676 3.209-0.66681 0.1438-6e-5 0.4232-0.13619 0.6209-0.30252 0.1977-0.16632 0.5603-0.38639 0.806-0.48902 0.4431-0.18514 0.4404-0.1797-0.3479 0.69342-0.4369 0.48401-1.0256 1.1878-1.3081 1.564-0.2825 0.37616-0.8718 1.1341-1.3095 1.6843-2.2448 2.8216-4.1583 5.9581-5.6378 9.2414-0.6843 1.5184-2.8072 7.7306-3.0772 9.0045-0.093 0.44033-0.171 1.4232-0.1725 2.1841 0 0.76094-0.089 1.9249-0.1934 2.5866-0.105 0.66169-0.1853 1.2572-0.1785 1.3234 0.01 0.0662 0.066 0.47222 0.1312 0.90232 0.066 0.4301 0.1645 1.4046 0.22 2.1655 0.079 1.0833 0.1962 1.6707 0.5395 2.7069 0.834 2.5166 2.5932 5.6921 4.3063 7.7728 2.2282 2.7063 6.9443 5.6316 11.415 7.0804 2.0149 0.65293 9.1442 2.5106 10.857 2.8291 0.5788 0.10758 1.8513 0.43502 2.828 0.72763 0.9766 0.29262 2.3438 0.64419 3.0382 0.78127 3.5581 0.70242 6.5084 1.8025 8.0478 3.0008 0.3044 0.23693 0.7012 0.52496 0.8818 0.64005 0.7209 0.45942 0.9112 1.4066 0.6405 3.1872-0.29 1.9076-0.218 2.0098 2.2516 3.1987 1.1299 0.54393 1.4823 0.77533 1.7444 1.1456 0.464 0.65512 1.6248 1.5371 2.948 2.2399 0.623 0.33085 2.0209 1.1745 3.1065 1.8748 4.2194 2.7218 7.8578 4.5763 11.899 6.0652 0.761 0.28034 2.1415 0.8192 3.0678 1.1975 2.4099 0.98405 11.219 3.8984 14.196 4.6964 1.3895 0.37249 3.2661 0.89048 4.17 1.1511 1.1988 0.34561 2.2329 0.5442 3.821 0.73367 1.1975 0.14289 2.1633 0.27325 2.1461 0.2897-0.017 0.0165-1.0058 0.23023-2.1968 0.47506-5.2458 1.0783-16.895 4.5165-22.197 6.5513-0.8932 0.34283-2.7069 0.97659-4.0303 1.4084-2.8405 0.92672-5.7911 2.075-7.8801 3.0667-0.8272 0.39265-1.9761 0.87218-2.5533 1.0656-2.4303 0.81452-3.7227 1.683-6.1691 4.1454-2.0184 2.0317-2.8316 2.6849-6.3763 5.1214-2.1357 1.468-2.1978 1.5007-4.5116 2.3672-3.7828 1.4167-6.8557 2.3819-9.6847 3.0418-5.7697 1.3458-6.5594 1.6778-8.4032 3.5328-1.5406 1.55-4.8291 4.2834-5.822 4.8392-0.9933 0.55607-2.0426 1.5436-2.8435 2.6761-0.3585 0.50705-1.0723 1.4076-1.5861 2.0013-1.0885 1.2577-2.7045 3.6447-3.2013 4.7287-0.1903 0.41533-0.5596 1.4981-0.8206 2.4062-0.7479 2.6014-2.3512 7.2116-3.1877 9.1659l-0.4228 0.98812v2.2366c0 1.8836 0.038 2.3613 0.2384 3.0271 0.1311 0.4348 0.3174 1.212 0.4141 1.7271 0.097 0.51511 0.3178 1.246 0.4915 1.6242 0.1925 0.4191 0.3595 1.0699 0.4278 1.6667 0.1631 1.4263 0.4678 2.287 1.7299 4.8867 0.7726 1.5914 1.2983 2.5157 1.6623 2.9228 0.4076 0.45602 0.6535 0.91928 1.0501 1.9789 1.126 3.0087 2.0296 4.7799 3.1425 6.1608 0.5756 0.7142 1.1345 1.6343 1.0462 1.7226-0.022 0.022-1.1493-0.36516-2.5048-0.86048-3.3085-1.2089-11.696-4.0153-12-4.0153-0.3008 0-1.3183 0.9006-1.876 1.6602-0.5297 0.72175-1.2031 2.0673-1.4442 2.8861-0.71 2.4108-0.3825 4.9387 0.7799 6.0212 1.7574 1.6365 2.979 2.538 4.4364 3.2737 1.3548 0.684 7.3313 3.2427 8.9629 3.8373 2.959 1.0783 5.1336 2.0858 8.0005 3.7065 1.6305 0.92175 4.818 2.9979 6.1194 3.9857 0.5052 0.38348 2.3803 1.7169 4.1669 2.9632 3.938 2.7471 6.0421 4.3176 7.3989 5.5228 1.7374 1.5431 8.1243 5.6936 16.121 10.476 2.0844 1.2466 4.9808 3.034 6.4365 3.972 2.6542 1.7102 5.6405 3.507 8.0005 4.8137 0.6948 0.38468 1.3986 0.82251 1.564 0.97293 0.1655 0.15043 0.5196 0.37144 0.7871 0.49113l0.4862 0.21764-1.0276 0.0157c-0.7276 0.0112-1.3412 0.10936-2.1012 0.33635-0.5925 0.17698-2.0747 0.45168-3.3084 0.61316-3.4975 0.45778-4.7097 0.84278-8.2985 2.6356-0.8337 0.41652-2.2468 1.0972-3.1401 1.5127-1.4558 0.67709-4.1281 2.2062-5.5047 3.15-0.2816 0.19303-0.9115 0.68652-1.3999 1.0966-0.4882 0.41013-1.1923 0.96578-1.5645 1.2348-0.3723 0.26899-1.2447 1.046-1.9389 1.7266-1.0741 1.0533-1.3318 1.3834-1.731 2.2178-0.384 0.80264-0.6212 1.1157-1.3086 1.7268-1.5128 1.3449-3.0376 4.4245-3.7133 7.4995-0.3989 1.8159-0.2434 7.5614 0.3285 12.135 0.2102 1.6808 0.3184 2.154 0.7291 3.1882 0.7344 1.8492 1.5713 3.5216 2.3578 4.711 0.3909 0.59129 1.2966 2.1555 2.0124 3.476 0.7159 1.3205 1.5289 2.7822 1.8067 3.2483 0.2791 0.46821 0.5716 1.1589 0.6536 1.5435 0.1127 0.52795 0.3835 1.0511 1.1208 2.1656 1.7892 2.7042 2.4851 3.9096 3.0834 5.3412 0.3268 0.78195 0.8111 1.8007 1.0762 2.2639 0.6407 1.1195 1.5942 3.9758 1.6754 5.0192 0.095 1.2155-0.242 1.8116-1.8874 3.3417-0.7174 0.66716-1.3717 1.3753-1.4538 1.5736-0.2339 0.56473-0.07 1.4774 0.5476 3.0512l0.5637 1.4361-0.1301 1.2341c-0.1494 1.4167-0.024 2.7964 0.3576 3.9287 0.1313 0.38988 0.3981 1.5838 0.5928 2.6531 0.8196 4.5008 2.4577 10.252 4.077 14.313 0.206 0.51672 0.5698 1.5431 0.8082 2.2808 1.1771 3.6412 5.3235 12.59 7.5385 16.27 0.8315 1.3813 2.1613 3.2024 2.7223 3.7282 0.211 0.19774 0.6245 0.8513 0.9188 1.4524 0.626 1.2783 1.1432 1.923 1.9662 2.4512 0.5173 0.33196 0.9559 0.78387 1.258 1.2963 0.3079 0.52219-3.603-1.5436-8.0431-4.2484-7.9455-4.8402-16.16-9.4922-18.46-10.453-0.426-0.17811-2.2667-1.028-4.0905-1.8885-4.1397-1.9535-5.8839-2.6756-7.3438-3.0401-2.6723-0.66733-4.5344-0.90669-7.0657-0.90819-2.0408-2e-3 -2.9567-0.10308-7.0571-0.78489-1.778-0.29562-3.3532-0.53751-3.5005-0.53751-0.4059 0-4.0802-1.6353-7.0149-3.1221-1.5844-0.80267-3.488-1.8934-4.8333-2.7694-3.7016-2.4104-4.6883-2.8193-7.1044-2.9442-0.761-0.0394-2.4392-0.17505-3.7296-0.30158-2.1628-0.21209-5.6491-0.42237-6.7974-0.40999-1.2071 0.013-4.1762 0.28718-4.9899 0.46077-2.5434 0.54256-10.582 4.4089-14.509 6.9789-2.114 1.3833-3.6563 2.5689-3.9176 3.0116-0.1326 0.22478-0.3404 0.4402-0.4618 0.47873-0.1213 0.0385-0.3049 0.28075-0.4079 0.5383-0.1031 0.25757-0.2681 0.51343-0.3666 0.56859-0.1623 0.0908-0.523 0.68488-1.0085 1.661-0.099 0.19851-0.3883 0.56616-0.6436 0.81699-0.5171 0.5081-1.0042 1.3844-1.1237 2.0218-0.048 0.25794-0.4031 0.83126-0.9215 1.4895-1.0167 1.2909-1.3911 2.0008-1.6115 3.0554-0.1616 0.773-1.6168 5.2163-1.8529 5.6574-0.064 0.12022-0.333 1.0519-0.597 2.0704-0.2641 1.0185-0.8975 3.07-1.4076 4.5588-0.899 2.6238-0.9297 2.7513-1.0026 4.1506l-0.076 1.4437-1.3959-2.8272zm-128.75-2.0152c-0.034-0.11579-0.099-0.67071-0.1435-1.2332-0.1165-1.4628-0.3249-1.6737-0.2377-0.24061 0.077 1.2691 0.1583 1.6843 0.3287 1.6843 0.063 0 0.086-0.0947 0.052-0.21054zm0.9591-1.2195 0.041-0.79564-0.1691 0.84215c-0.2119 1.056-0.2223 1.282-0.044 0.97611 0.072-0.12484 0.1502-0.58502 0.1728-1.0226zm-77.313-67.487c0.079-0.15455 0.1771-0.248 0.2174-0.20767 0.04 0.0403-0.025 0.16677-0.1441 0.28099-0.2079 0.19853-0.2111 0.19531-0.073-0.0733zm329.11-59.452c-0.2803-0.30974-0.053-0.31262 0.3176-4e-3 0.2158 0.17981 0.2379 0.23757 0.092 0.24061-0.1055 2e-3 -0.2898-0.10427-0.4096-0.23661zm29.476-135.59c-2.5782-0.18508-3.2556-0.26874-3.0077-0.37148 0.2643-0.10963 3.9009-0.8782 4.7308-0.9999 0.365-0.0535 0.4957-0.0366 0.4382 0.0565-0.045 0.073 0.032 0.21271 0.1716 0.31043 0.343 0.24027 0.3255 0.52495-0.033 0.52495-0.3705 0-0.6051 0.26386-0.4089 0.46003 0.1596 0.15951 0.072 0.16041-1.8917 0.0195zm-82.868-83.428c0.3452-0.47427 1.1144-0.38645 0.9255 0.10567-0.052 0.13513-0.2302 0.19132-0.6075 0.19132h-0.5342z" />
  </g>
</svg>